<?xml version="1.0" encoding="utf-8"?>
<!-- Generator: Adobe Illustrator 19.0.0, SVG Export Plug-In . SVG Version: 6.00 Build 0)  -->
<svg version="1.1" id="Capa_1" xmlns="http://www.w3.org/2000/svg" xmlns:xlink="http://www.w3.org/1999/xlink" x="0px" y="0px"
	 viewBox="0 0 201.4 201.4" fill ="#fff" style="enable-background:new 0 0 201.4 201.4;" xml:space="preserve">
<g id="XMLID_2_">
	<g id="XMLID_1_">
		<path id="XMLID_7_" d="M13.2,118.4c-1.9,0-3.7-0.7-5.1-2.1c-2.8-2.8-2.8-7.4,0-10.3l98-98c2.8-2.8,7.4-2.8,10.3,0
			c2.8,2.8,2.8,7.4,0,10.3l-98,98C16.9,117.7,15.1,118.4,13.2,118.4z"/>
	</g>
	<g id="XMLID_3_">
		<path id="XMLID_6_" d="M7.2,201.4c-1.9,0-3.7-0.7-5.1-2.1c-2.8-2.8-2.8-7.4,0-10.3L189,2.1c2.8-2.8,7.4-2.8,10.3,0
			c2.8,2.8,2.8,7.4,0,10.3L12.4,199.2C11,200.6,9.1,201.4,7.2,201.4z"/>
	</g>
	<g id="XMLID_4_">
		<path id="XMLID_5_" d="M90.2,195.4c-1.9,0-3.7-0.7-5.1-2.1c-2.8-2.8-2.8-7.4,0-10.3l98-98c2.8-2.8,7.4-2.8,10.3,0
			c2.8,2.8,2.8,7.4,0,10.3l-98,98C93.9,194.7,92,195.4,90.2,195.4z"/>
	</g>
</g>
</svg>
