<?xml version="1.0" encoding="utf-8"?>
<!-- Generator: Adobe Illustrator 19.0.0, SVG Export Plug-In . SVG Version: 6.00 Build 0)  -->
<svg version="1.1" id="Capa_1" xmlns="http://www.w3.org/2000/svg" xmlns:xlink="http://www.w3.org/1999/xlink" x="0px" y="0px"
fill = "#fff"
	 viewBox="0 0 201.4 201.4" style="enable-background:new 0 0 201.4 201.4;" xml:space="preserve">
<g id="XMLID_3_">
	<path id="XMLID_6_" d="M7.2,201.4c-1.9,0-3.7-0.7-5.1-2.1c-2.8-2.8-2.8-7.4,0-10.3L189,2.1c2.8-2.8,7.4-2.8,10.3,0
		c2.8,2.8,2.8,7.4,0,10.3L12.4,199.2C11,200.6,9.1,201.4,7.2,201.4z"/>
</g>
<g id="XMLID_2_">
	<path id="XMLID_4_" d="M194.1,201.4c1.9,0,3.7-0.7,5.1-2.1c2.8-2.8,2.8-7.4,0-10.3L12.4,2.1C9.5-0.7,5-0.7,2.1,2.1
		c-2.8,2.8-2.8,7.4,0,10.3L189,199.2C190.4,200.6,192.3,201.4,194.1,201.4z"/>
</g>
</svg>
