<?xml version="1.0" encoding="utf-8"?>
<!-- Generator: Adobe Illustrator 19.0.0, SVG Export Plug-In . SVG Version: 6.00 Build 0)  -->
<svg version="1.1" id="Capa_1" xmlns="http://www.w3.org/2000/svg" xmlns:xlink="http://www.w3.org/1999/xlink" x="0px" y="0px"
	 viewBox="-41 164.9 512 512" style="enable-background:new -41 164.9 512 512;" xml:space="preserve">
<style type="text/css">
	.st0{fill:#FFFFFF;}
</style>
<path class="st0" d="M354.1,301H59.9c-13.3,0-24-10.7-24-24v12c0,13.3,10.7,24,24,24h294.2c13.3,0,24-10.7,24-24v-12
	C378.1,290.3,367.4,301,354.1,301z"/>
<g>
	<path class="st0" d="M354.1,317c15.5,0,28-12.5,28-28v-66.1c0-15.5-12.5-28-28-28H251c-2.2,0-4,1.8-4,4c0,2.2,1.8,4,4,4h103.1
		c11,0,20,9,20,20V289c0,11-9,20-20,20H59.9c-11,0-20-9-20-20v-66.1c0-11,9-20,20-20H169c2.2,0,4-1.8,4-4c0-2.2-1.8-4-4-4H59.9
		c-15.5,0-28,12.5-28,28V289c0,15.5,12.5,28,28,28h7.8v22.1h-7.8c-15.5,0-28,12.5-28,28v66.1c0,15.5,12.5,28,28,28h7.8v22.1h-7.8
		c-15.5,0-28,12.5-28,28v66.1c0,15.5,12.5,28,28,28h7.8v13.4c0,6.6,5.4,12,12,12l0,0h44.2c6.6,0,12-5.4,12-12l0,0v-13.4h142.3v13.4
		c0,6.6,5.4,12,12,12l0,0h44.2c6.6,0,12-5.4,12-12l0,0v-13.4h7.8c15.5,0,28-12.5,28-28v-66.1c0-15.5-12.5-28-28-28h-7.8v-22.1h7.8
		c15.5,0,28-12.5,28-28v-66.1c0-15.5-12.5-28-28-28h-7.8V317H354.1z M127.9,618.8c0,2.2-1.8,4-4,4H79.6c-2.2,0-4-1.8-4-4v-13.4h52.2
		V618.8z M338.4,618.8c0,2.2-1.8,4-4,4h-44.2c-2.2,0-4-1.8-4-4v-13.4h52.2V618.8z M374.1,511.3v66.1c0,11-9,20-20,20H59.9
		c-11,0-20-9-20-20v-66.1c0-11,9-20,20-20h294.2C365.1,491.4,374.1,500.3,374.1,511.3z M338.4,483.3H75.6v-22.1h262.7V483.3z
		 M374.1,367.1v66.1c0,11-9,20-20,20H59.9c-11,0-20-9-20-20v-66.1c0-11,9-20,20-20h294.2C365.1,347.2,374.1,356.1,374.1,367.1z
		 M338.4,339.1H75.6V317h262.7V339.1z"/>
	<path class="st0" d="M188,202.9h46.2c2.2,0,4-1.8,4-4s-1.8-4-4-4H188c-2.2,0-4,1.8-4,4S185.8,202.9,188,202.9L188,202.9z"/>
	<path class="st0" d="M61.7,256c0,12.1,9.8,21.9,21.9,21.9s21.9-9.8,21.9-21.9c0-12.1-9.8-21.9-21.9-21.9
		C71.5,234.1,61.7,243.9,61.7,256z M97.4,256c0,7.7-6.2,13.9-13.9,13.9c-7.7,0-13.9-6.2-13.9-13.9c0-7.7,6.2-13.9,13.9-13.9
		C91.2,242.1,97.4,248.3,97.4,256z"/>
	<path class="st0" d="M196.2,244.1v29.8c0,2.2,1.8,4,4,4s4-1.8,4-4v-29.8c0-2.2-1.8-4-4-4S196.2,241.8,196.2,244.1z"/>
	<path class="st0" d="M234.2,240.1c-2.2,0-4,1.8-4,4v29.8c0,2.2,1.8,4,4,4s4-1.8,4-4v-29.8C238.2,241.8,236.4,240.1,234.2,240.1z"/>
	<path class="st0" d="M272.3,273.9v-29.8c0-2.2-1.8-4-4-4s-4,1.8-4,4v29.8c0,2.2,1.8,4,4,4S272.3,276.1,272.3,273.9z"/>
	<path class="st0" d="M306.3,273.9v-29.8c0-2.2-1.8-4-4-4s-4,1.8-4,4v29.8c0,2.2,1.8,4,4,4S306.3,276.1,306.3,273.9z"/>
	<path class="st0" d="M340.4,273.9v-29.8c0-2.2-1.8-4-4-4s-4,1.8-4,4v29.8c0,2.2,1.8,4,4,4S340.4,276.1,340.4,273.9z"/>
	<path class="st0" d="M83.6,422.1c12.1,0,21.9-9.8,21.9-21.9s-9.8-21.9-21.9-21.9c-12.1,0-21.9,9.8-21.9,21.9
		C61.7,412.3,71.5,422,83.6,422.1z M83.6,386.3c7.7,0,13.9,6.2,13.9,13.9s-6.2,13.9-13.9,13.9c-7.7,0-13.9-6.2-13.9-13.9
		C69.7,392.5,75.9,386.3,83.6,386.3z"/>
	<path class="st0" d="M200.2,422.1c2.2,0,4-1.8,4-4v-29.8c0-2.2-1.8-4-4-4s-4,1.8-4,4v29.8C196.2,420.3,198,422.1,200.2,422.1z"/>
	<path class="st0" d="M234.2,422.1c2.2,0,4-1.8,4-4v-29.8c0-2.2-1.8-4-4-4s-4,1.8-4,4v29.8C230.2,420.3,232,422.1,234.2,422.1z"/>
	<path class="st0" d="M268.3,422.1c2.2,0,4-1.8,4-4v-29.8c0-2.2-1.8-4-4-4s-4,1.8-4,4v29.8C264.3,420.3,266.1,422.1,268.3,422.1z"/>
	<path class="st0" d="M302.3,422.1c2.2,0,4-1.8,4-4v-29.8c0-2.2-1.8-4-4-4s-4,1.8-4,4v29.8C298.3,420.3,300.1,422.1,302.3,422.1z"/>
	<path class="st0" d="M336.4,422.1c2.2,0,4-1.8,4-4v-29.8c0-2.2-1.8-4-4-4s-4,1.8-4,4v29.8C332.4,420.3,334.2,422.1,336.4,422.1z"/>
	<path class="st0" d="M83.6,522.5c-12.1,0-21.9,9.8-21.9,21.9s9.8,21.9,21.9,21.9s21.9-9.8,21.9-21.9c0,0,0,0,0,0
		C105.4,532.3,95.6,522.5,83.6,522.5z M83.6,558.2c-7.7,0-13.9-6.2-13.9-13.9c0-7.7,6.2-13.9,13.9-13.9s13.9,6.2,13.9,13.9
		c0,0,0,0,0,0C97.4,552,91.2,558.2,83.6,558.2L83.6,558.2z"/>
	<path class="st0" d="M200.2,528.5c-2.2,0-4,1.8-4,4v29.8c0,2.2,1.8,4,4,4s4-1.8,4-4v-29.8C204.2,530.3,202.4,528.5,200.2,528.5z"/>
	<path class="st0" d="M234.2,528.5c-2.2,0-4,1.8-4,4v29.8c0,2.2,1.8,4,4,4s4-1.8,4-4v-29.8C238.2,530.3,236.4,528.5,234.2,528.5z"/>
	<path class="st0" d="M268.3,528.5c-2.2,0-4,1.8-4,4v29.8c0,2.2,1.8,4,4,4s4-1.8,4-4v-29.8C272.3,530.3,270.5,528.5,268.3,528.5z"/>
	<path class="st0" d="M302.3,528.5c-2.2,0-4,1.8-4,4v29.8c0,2.2,1.8,4,4,4s4-1.8,4-4v-29.8C306.3,530.3,304.5,528.5,302.3,528.5z"/>
	<path class="st0" d="M336.4,528.5c-2.2,0-4,1.8-4,4v29.8c0,2.2,1.8,4,4,4s4-1.8,4-4v-29.8C340.4,530.3,338.6,528.5,336.4,528.5z"/>
</g>
</svg>
