<?xml version="1.0" encoding="utf-8"?>
<!-- Generator: Adobe Illustrator 19.0.0, SVG Export Plug-In . SVG Version: 6.00 Build 0)  -->
<svg version="1.1" xmlns="http://www.w3.org/2000/svg" xmlns:xlink="http://www.w3.org/1999/xlink" x="0px" y="0px"
	 viewBox="0 0 269.2 246.6" style="enable-background:new 0 0 269.2 246.6;" xml:space="preserve">
<style type="text/css">
	.st0{fill:#1B2226;}
</style>
<g id="Capa_4">
</g>
<g id="Capa_2">
</g>
<g id="Capa_5">
	<path id="XMLID_11_" class="st0" d="M10,134.6C10,65.9,65.9,10,134.6,10s124.6,55.9,124.6,124.6c0,41.1-20,77.6-50.8,100.3l5,8.7
		c33.7-24.5,55.7-64.2,55.7-109C269.2,60.4,208.8,0,134.6,0S0,60.4,0,134.6c0,46.6,23.8,87.8,60,112l5-8.7
		C31.8,215.5,10,177.5,10,134.6z"/>
	<path id="XMLID_12_" class="st0" d="M87.6,199c-19.8-14.5-32.7-38-32.7-64.4c0-44,35.8-79.8,79.8-79.8s79.8,35.8,79.8,79.8
		c0,24.5-11.1,46.5-28.6,61.2l11.3,19.6l1.3,2.3c24.9-19.2,41-49.3,41-83c0-57.8-47-104.8-104.8-104.8S29.8,76.8,29.8,134.6
		c0,35.6,17.9,67.1,45.1,86.1l3.2-5.5L87.6,199z"/>
</g>
<g id="Capa_3">
	<g id="XMLID_29_">
		<path id="XMLID_40_" class="st0" d="M226.9,136.9c0,3.5-0.2,6.9-0.6,10.3c0,0.4-0.1,0.8-0.1,1.1c-0.2,1.9-0.5,3.8-0.9,5.7
			c-0.1,0.4-0.1,0.7-0.2,1.1c-6.5,32.6-30.2,59-61.2,69.3c-4.7,0.9-6.3-2-6.3-4.4c0-3,0.1-13,0.1-25.3c0-8.6-2.9-14.2-6.3-17.1
			c16-1.8,32.6-6.9,39.2-25.8c0.1-0.4,0.3-0.7,0.4-1.1c0.4-1.1,0.7-2.3,1-3.6c0.1-0.4,0.2-0.7,0.3-1.1c0.9-4.1,1.3-8.7,1.3-13.9
			c0-10.1-3.6-18.3-9.5-24.8c1-2.3,4.1-11.7-0.9-24.4c0,0-7.7-2.5-25.3,9.5c-7.4-2-15.3-3.1-23.1-3.1c-7.8,0-15.7,1.1-23.1,3.1
			c-17.6-11.9-25.4-9.5-25.4-9.5c-5,12.7-1.8,22.1-0.9,24.4c-5.9,6.5-9.5,14.7-9.5,24.8c0,5.2,0.5,9.8,1.3,13.9
			c0.1,0.4,0.2,0.8,0.2,1.1c0.3,1.3,0.6,2.5,1,3.6c0.1,0.4,0.2,0.8,0.4,1.1c6.6,18.8,23.2,24,39.1,25.8c-2.6,2.3-5,6.4-5.9,12.3
			c-5.3,2.4-18.6,6.4-26.8-7.7c0,0-4.9-8.9-14.1-9.5c0,0-9-0.1-0.6,5.6c0,0,6,2.8,10.2,13.5c0,0,5.4,16.5,31.1,10.9
			c0,7.7,0.1,15,0.1,17.2c0,2.4-1.7,5.3-6.3,4.4c-31.1-10.3-54.8-36.7-61.3-69.3v0c-0.1-0.4-0.1-0.7-0.2-1.1
			c-0.4-1.9-0.7-3.8-0.9-5.7c0-0.4-0.1-0.8-0.1-1.1c-0.4-3.4-0.6-6.8-0.6-10.3c0-51,41.3-92.3,92.3-92.3
			C185.6,44.6,226.9,85.9,226.9,136.9z"/>
		<path id="XMLID_39_" class="st0" d="M76.5,175.7c-0.7-0.3-1.4-0.2-1.6,0.3c-0.2,0.5,0.2,1.1,0.8,1.4c0.7,0.3,1.4,0.2,1.6-0.3
			C77.5,176.6,77.1,176,76.5,175.7z"/>
		<path id="XMLID_35_" class="st0" d="M80.8,179.3c-0.6-0.6-1.4-0.8-1.9-0.4c-0.4,0.4-0.3,1.3,0.3,1.9c0.6,0.6,1.4,0.8,1.9,0.4
			C81.5,180.8,81.4,180,80.8,179.3z"/>
		<path id="XMLID_34_" class="st0" d="M84.7,184.3c-0.6-0.8-1.5-1.2-2.1-0.8c-0.6,0.4-0.6,1.4,0,2.2c0.6,0.8,1.5,1.2,2.1,0.8
			C85.2,186.2,85.2,185.2,84.7,184.3z"/>
		<path id="XMLID_33_" class="st0" d="M89.1,189.3c-0.8-0.8-1.9-0.9-2.4-0.4c-0.5,0.6-0.3,1.6,0.5,2.4c0.8,0.8,1.9,0.9,2.4,0.4
			C90.2,191.1,89.9,190.1,89.1,189.3z"/>
		<path id="XMLID_32_" class="st0" d="M95,192.8c-1.1-0.3-2.1,0-2.3,0.7c-0.2,0.7,0.5,1.6,1.5,1.9c1,0.3,2.1,0,2.3-0.7
			C96.7,193.9,96.1,193.1,95,192.8z"/>
		<path id="XMLID_31_" class="st0" d="M102.1,193.9c-1.1,0-2,0.6-2,1.4c0,0.7,0.9,1.4,2,1.3c1.1,0,2-0.6,2-1.4
			C104.1,194.5,103.2,193.9,102.1,193.9z"/>
		<path id="XMLID_30_" class="st0" d="M111.1,194c-0.1-0.8-1.1-1.2-2.2-1c-1.1,0.2-1.8,1-1.7,1.7c0.1,0.7,1.1,1.2,2.2,1
			C110.5,195.5,111.2,194.8,111.1,194z"/>
	</g>
</g>
</svg>
