<?xml version="1.0" encoding="utf-8"?>
<!-- Generator: Adobe Illustrator 19.0.0, SVG Export Plug-In . SVG Version: 6.00 Build 0)  -->
<svg version="1.1" xmlns="http://www.w3.org/2000/svg" xmlns:xlink="http://www.w3.org/1999/xlink" x="0px" y="0px"
	 viewBox="0 0 269.2 246.6" style="enable-background:new 0 0 269.2 246.6;" xml:space="preserve">
<style type="text/css">
	.st0{fill:#E4BA42;}
	.st1{fill:#F2F2F2;}
</style>
<g id="Capa_4">
</g>
<g id="Capa_2">
</g>
<g id="Capa_5">
	<path id="XMLID_11_" class="st0" d="M10,134.6C10,65.9,65.9,10,134.6,10s124.6,55.9,124.6,124.6c0,41.1-20,77.6-50.8,100.3l5,8.7
		c33.7-24.5,55.7-64.2,55.7-109C269.2,60.4,208.8,0,134.6,0S0,60.4,0,134.6c0,46.6,23.8,87.8,60,112l5-8.7
		C31.8,215.5,10,177.5,10,134.6z"/>
	<path id="XMLID_12_" class="st0" d="M87.6,199c-19.8-14.5-32.7-38-32.7-64.4c0-44,35.8-79.8,79.8-79.8s79.8,35.8,79.8,79.8
		c0,24.5-11.1,46.5-28.6,61.2l11.3,19.6l1.3,2.3c24.9-19.2,41-49.3,41-83c0-57.8-47-104.8-104.8-104.8S29.8,76.8,29.8,134.6
		c0,35.6,17.9,67.1,45.1,86.1l3.2-5.5L87.6,199z"/>
</g>
<g id="Capa_3">
	<g id="XMLID_51_">
		<path id="XMLID_56_" class="st0" d="M227.7,135.9c0,12.1-2.3,23.6-6.5,34.2c-2.2,5.7-5,11-8.3,16.1c-4.1,6.3-8.9,12.1-14.3,17.2
			c-3.2,3-6.6,5.8-10.1,8.3c-15.1,10.7-33.5,16.9-53.4,16.9s-38.3-6.3-53.4-16.9c-4.5-3.2-8.7-6.7-12.5-10.6
			c-16.6-16.7-26.8-39.8-26.8-65.2s10.2-48.4,26.8-65.2c4.1-4.1,8.5-7.8,13.3-11.1c14.9-10.3,33.1-16.4,52.6-16.4s37.7,6,52.6,16.4
			c3.7,2.5,7.1,5.3,10.3,8.3c5.7,5.3,10.7,11.2,14.9,17.7c3.3,5,6.1,10.4,8.3,16.1C225.4,112.3,227.7,123.8,227.7,135.9z"/>
		<g id="XMLID_62_">
			<path id="XMLID_55_" class="st1" d="M183.9,127.6c-2.6-7.5-13.2-7.5-15.2-1.3c-2.1,6.2,4.9,9.8,15.7,13.4
				c10.8,3.6,17.5,13.2,16.3,21.7s-4.9,19.6-26.3,19.6c-13.4,0-20.8-8.4-24.5-14.6L162,159c0,0,4.1,8.8,11.9,8.8
				c7.7,0,10.8-2.6,10.8-8.5c0-7.2-25-9.8-28.9-22.2c-3.9-12.4,1.3-29.9,19.3-28.6c11.3,0.8,17.6,6.3,20.8,10.4L183.9,127.6z"/>
			<path id="XMLID_54_" class="st1" d="M127.7,109.8c0,0,0,43.6,0,49.5c0,5.9-5.2,9-10.3,8c-5.2-1-7.5-7.2-7.5-7.2l-11.9,8
				c0,0,2.6,11.9,18.8,12.9c16.3,1,25.5-8.8,25.5-17s0-54.2,0-54.2L127.7,109.8L127.7,109.8z"/>
			<path id="XMLID_53_" class="st1" d="M69.1,59.6V201c3.8,3.9,8,7.4,12.5,10.6h106.8c3.6-2.5,7-5.3,10.1-8.3H77.4V67.9h135.5v118.3
				c3.3-5,6.1-10.4,8.3-16.1V59.6H69.1z"/>
		</g>
	</g>
</g>
</svg>
