<?xml version="1.0" encoding="utf-8"?>
<!-- Generator: Adobe Illustrator 19.0.0, SVG Export Plug-In . SVG Version: 6.00 Build 0)  -->
<svg version="1.1" xmlns="http://www.w3.org/2000/svg" xmlns:xlink="http://www.w3.org/1999/xlink" x="0px" y="0px"
	 viewBox="0 0 269.2 246.6" style="enable-background:new 0 0 269.2 246.6;" xml:space="preserve">
<style type="text/css">
	.st0{fill:#006BC0;}
	.st1{fill:#F2F2F2;}
	.st2{fill:#0096DC;}
	.st3{fill:#FFFFFF;}
	.st4{fill:#222123;}
</style>
<g id="Capa_4">
</g>
<g id="Capa_2">
</g>
<g id="Capa_5">
	<path id="XMLID_11_" class="st0" d="M10,134.6C10,65.9,65.9,10,134.6,10s124.6,55.9,124.6,124.6c0,41.1-20,77.6-50.8,100.3l5,8.7
		c33.7-24.5,55.7-64.2,55.7-109C269.2,60.4,208.8,0,134.6,0S0,60.4,0,134.6c0,46.6,23.8,87.8,60,112l5-8.7
		C31.8,215.5,10,177.5,10,134.6z"/>
	<path id="XMLID_12_" class="st1" d="M87.6,199c-19.8-14.5-32.7-38-32.7-64.4c0-44,35.8-79.8,79.8-79.8s79.8,35.8,79.8,79.8
		c0,24.5-11.1,46.5-28.6,61.2l11.3,19.6l1.3,2.3c24.9-19.2,41-49.3,41-83c0-57.8-47-104.8-104.8-104.8S29.8,76.8,29.8,134.6
		c0,35.6,17.9,67.1,45.1,86.1l3.2-5.5L87.6,199z"/>
</g>
<g id="Capa_3">
	<g id="XMLID_51_">
		<path id="XMLID_58_" class="st1" d="M231.9,129.8c0,32.1-15.2,60.7-38.7,79c-16.9,13.1-38.1,20.9-61.2,20.9s-44.3-7.8-61.2-20.9
			c-23.6-18.3-38.7-46.9-38.7-79c0-55.2,44.7-99.9,99.9-99.9S231.9,74.6,231.9,129.8z"/>
		<path id="XMLID_57_" class="st0" d="M204.6,76.5l-11.4,132.3c-16.9,13.1-38.1,20.9-61.2,20.9s-44.3-7.8-61.2-20.9L59.4,76.5H204.6
			z"/>
		<polygon id="XMLID_56_" class="st2" points="132,88.9 132,227.1 179.7,213.6 190.4,88.9 		"/>
		<polygon id="XMLID_55_" class="st3" points="174.2,143 139.8,143 175.7,124.6 177.3,106.2 86.8,106.2 88.3,125 124.7,125 
			89.8,142.4 91.4,161.7 91.4,161.7 153.6,161.7 151.6,184.6 132,189.9 111.6,184.1 111.1,169.9 92.1,169.9 94.5,198 132,208.6 
			169.5,198 174.2,143 		"/>
		<g id="XMLID_61_">
			<polygon id="XMLID_54_" class="st4" points="96.6,56.1 96.6,43 115.4,43 115.4,36 89.8,36 89.8,63.2 115.4,63.2 115.4,56.1 			
				"/>
			<polygon id="XMLID_53_" class="st4" points="126.4,46.6 126.4,43.3 145,43.3 145,43 145,36 119.5,36 119.5,52.8 137.8,52.8 
				137.8,56.1 119.5,56.1 119.5,63.2 145,63.2 145,56.1 145,46.6 			"/>
			<polygon id="XMLID_52_" class="st4" points="155.5,46.6 155.5,43.3 174.2,43.3 174.2,43 174.2,36 148.6,36 148.6,52.8 167,52.8 
				167,56.1 148.6,56.1 148.6,63.2 174.2,63.2 174.2,56.1 174.2,46.6 			"/>
		</g>
	</g>
</g>
</svg>
