<?xml version="1.0" encoding="utf-8"?>
<!-- Generator: Adobe Illustrator 19.0.0, SVG Export Plug-In . SVG Version: 6.00 Build 0)  -->
<svg version="1.1" xmlns="http://www.w3.org/2000/svg" xmlns:xlink="http://www.w3.org/1999/xlink" x="0px" y="0px"
	 viewBox="0 0 269.2 246.6" style="enable-background:new 0 0 269.2 246.6;" xml:space="preserve">
<style type="text/css">
	.st0{fill:#E64C18;}
	.st1{fill:#F2F2F2;}
	.st2{fill:#F36518;}
	.st3{fill:#FFFFFF;}
</style>
<g id="Capa_4">
</g>
<g id="Capa_2">
</g>
<g id="Capa_5">
	<path id="XMLID_11_" class="st0" d="M10,134.6C10,65.9,65.9,10,134.6,10s124.6,55.9,124.6,124.6c0,41.1-20,77.6-50.8,100.3l5,8.7
		c33.7-24.5,55.7-64.2,55.7-109C269.2,60.4,208.8,0,134.6,0S0,60.4,0,134.6c0,46.6,23.8,87.8,60,112l5-8.7
		C31.8,215.5,10,177.5,10,134.6z"/>
	<path id="XMLID_12_" class="st1" d="M87.6,199c-19.8-14.5-32.7-38-32.7-64.4c0-44,35.8-79.8,79.8-79.8s79.8,35.8,79.8,79.8
		c0,24.5-11.1,46.5-28.6,61.2l11.3,19.6l1.3,2.3c24.9-19.2,41-49.3,41-83c0-57.8-47-104.8-104.8-104.8S29.8,76.8,29.8,134.6
		c0,35.6,17.9,67.1,45.1,86.1l3.2-5.5L87.6,199z"/>
</g>
<g id="Capa_3">
	<g id="XMLID_29_">
		<path id="XMLID_40_" class="st1" d="M227.7,135.9c0,29.8-14.1,56.3-35.9,73.3c-15.7,12.2-35.4,19.4-56.7,19.4
			c-21.2,0-40.7-7.1-56.3-19.1c-22.1-16.9-36.3-43.6-36.3-73.6c0-51.2,41.5-92.7,92.7-92.7S227.7,84.7,227.7,135.9z"/>
		<path id="XMLID_39_" class="st0" d="M202.4,86.5l-10.6,122.7c-15.7,12.2-35.4,19.4-56.7,19.4c-21.2,0-40.7-7.1-56.3-19.1
			l-10.6-123H202.4z"/>
		<polygon id="XMLID_35_" class="st2" points="135.2,98 135.2,225.7 179.4,213.3 189.2,98 		"/>
		<polygon id="XMLID_34_" class="st3" points="93.4,114 97.7,165.2 155.2,165.2 153.3,186.4 135.2,191.3 116.4,186 115.9,172.8 
			98.3,172.8 100.5,198.9 135.2,208.7 169.9,198.9 174.2,147.9 113.6,147.9 112.1,131.3 112.1,131.3 175.6,131 177.1,114 		"/>
		<polygon id="XMLID_33_" points="97.1,49.3 97.1,58.1 88.7,58.1 88.7,49.3 80.8,49.3 80.8,74.5 88.7,74.5 88.7,66.3 97.1,66.3 
			97.1,74.5 104.9,74.5 104.9,49.3 		"/>
		<polygon id="XMLID_32_" points="132.7,49.3 108.6,49.3 108.6,58.1 116.4,58.1 116.4,74.7 124.9,74.7 124.9,58.1 132.7,58.1 		"/>
		<polygon id="XMLID_31_" points="177.5,66.7 177.5,49.5 169.1,49.5 169.1,66.7 169.1,74.7 177.5,74.7 189.6,74.7 189.6,66.7 		"/>
		<polygon id="XMLID_30_" points="156.3,49.5 150.5,58.5 144.6,49.5 136.2,49.5 136.2,74.7 144.6,74.7 144.6,62.2 150.5,71.2 
			156.3,62.2 156.3,74.7 164.8,74.7 164.8,49.5 		"/>
	</g>
</g>
</svg>
