<?xml version="1.0" encoding="UTF-8"?>
<svg version="1.1" xmlns="http://www.w3.org/2000/svg" width="512" height="512">
<path d="M0 0 C1.86505184 -0.00015564 3.73010399 -0.00165526 5.59515381 -0.00440979 C9.4675561 -0.00577999 13.33958179 0.00653418 17.21191406 0.02954102 C22.13240475 0.05800144 27.05227549 0.05514778 31.97281265 0.0424509 C35.81139265 0.03544253 39.64983349 0.04334009 43.48839569 0.05570793 C45.30136326 0.06016686 47.11434605 0.06060897 48.92731476 0.05664253 C59.96677303 0.04378072 70.11905826 0.82432991 80.859375 3.49609375 C81.61207672 3.68270065 82.36477844 3.86930756 83.14028931 4.06156921 C110.7345249 11.52096365 134.57952516 31.07400018 149.04101562 55.49121094 C163.67720825 81.70050508 167.65459978 111.27587467 160.859375 140.49609375 C160.09176709 143.19102887 159.28824894 145.82721242 158.3125 148.453125 C157.3752945 152.67862913 159.07108701 156.27820554 160.859375 160.05859375 C164.72908741 168.26750573 165.14296082 176.5181804 162.234375 185.18359375 C158.24388425 194.94430632 152.20006896 201.3330305 142.45703125 205.53125 C138.43126036 206.97141762 135.15996872 207.63142712 130.859375 207.49609375 C130.83359375 208.47707031 130.8078125 209.45804688 130.78125 210.46875 C130.00487823 231.38112088 123.06271069 249.26331202 109.859375 265.49609375 C109.19550781 266.33527344 108.53164063 267.17445313 107.84765625 268.0390625 C98.92312159 278.67921935 87.41672256 285.8383877 74.859375 291.49609375 C77.98892986 294.11088071 81.18279431 296.37217718 84.66772461 298.48876953 C92.62071418 303.33915231 99.21084783 309.00705149 105.859375 315.49609375 C106.82423828 316.36814453 106.82423828 316.36814453 107.80859375 317.2578125 C122.52667507 330.8780416 132.96123548 352.00539613 136.859375 371.49609375 C137.03162598 372.32230225 137.20387695 373.14851074 137.38134766 373.99975586 C139.20959074 383.97694886 139.23162976 393.92777276 139.22998047 404.04370117 C139.23437179 407.05639462 139.27085558 410.06764062 139.30859375 413.08007812 C139.39461556 427.64911975 138.28716289 439.452408 127.859375 450.49609375 C118.86376477 459.58184035 109.38858013 463.48392388 96.62944698 463.74218941 C94.19462358 463.75054436 91.75974721 463.74795019 89.32493591 463.73660278 C87.96423308 463.73747615 86.60353058 463.73922953 85.24282986 463.74178112 C81.52340419 463.746233 77.80409466 463.73828085 74.08468378 463.72822499 C70.06639968 463.71956151 66.04812175 463.7225127 62.02983093 463.72402954 C55.07438553 463.72507656 48.11897774 463.71881909 41.16354179 463.70755386 C31.10724217 463.69127702 21.05096067 463.68608862 10.9946493 463.68357788 C-5.32234371 463.67920421 -21.63931669 463.66590399 -37.95629883 463.64697266 C-53.80362854 463.62860538 -69.6509528 463.61445302 -85.49829102 463.60595703 C-86.47566105 463.60543158 -87.45303109 463.60490614 -88.4600184 463.60436477 C-93.36335803 463.60175463 -98.2666977 463.59922723 -103.17003739 463.59674096 C-143.82691386 463.57601866 -184.48376828 463.54080205 -225.140625 463.49609375 C-225.25834217 459.70469529 -225.32837698 455.9137764 -225.390625 452.12109375 C-225.42414063 451.06019531 -225.45765625 449.99929688 -225.4921875 448.90625 C-225.62237695 438.29581017 -222.64229031 429.21303864 -215.140625 421.49609375 C-204.99338689 413.29814554 -194.82868521 412.28959729 -182.140625 412.49609375 C-182.04974609 411.60857422 -182.04974609 411.60857422 -181.95703125 410.703125 C-181.87324219 409.91292969 -181.78945312 409.12273437 -181.703125 408.30859375 C-181.62191406 407.53128906 -181.54070312 406.75398438 -181.45703125 405.953125 C-181.13286178 403.43580902 -180.64936164 400.98184251 -180.140625 398.49609375 C-180.86016357 398.48674805 -181.57970215 398.47740234 -182.32104492 398.46777344 C-217.92526805 397.88638694 -217.92526805 397.88638694 -231.39453125 384.20703125 C-239.93600577 374.29703318 -242.2841486 363.41925067 -242.30175781 350.65185547 C-242.30672272 349.7826799 -242.31168762 348.91350433 -242.31680298 348.01799011 C-242.33135851 345.1539123 -242.33821656 342.28988992 -242.34375 339.42578125 C-242.34657738 338.44229832 -242.34940475 337.45881538 -242.35231781 336.44552994 C-242.36728605 331.23809797 -242.37652966 326.03069353 -242.38085938 320.82324219 C-242.38633172 315.47057524 -242.4103405 310.11816425 -242.43883133 304.76557732 C-242.45755124 300.62689504 -242.46266833 296.48827318 -242.46419525 292.34955215 C-242.46720265 290.37778453 -242.47516569 288.40601748 -242.48838043 286.43429184 C-242.59141084 269.87589916 -241.5800357 255.80792409 -230.140625 242.80859375 C-223.10393894 236.15141436 -212.54174445 231.4052649 -202.87615967 231.33787537 C-201.8104776 231.32808655 -200.74479553 231.31829773 -199.64682007 231.30821228 C-198.48300812 231.30245682 -197.31919617 231.29670135 -196.12011719 231.29077148 C-194.27581619 231.27592209 -194.27581619 231.27592209 -192.39425659 231.26077271 C-189.02683746 231.23460595 -185.65944177 231.21273526 -182.2919836 231.19277072 C-178.77122909 231.17088278 -175.25051735 231.14350784 -171.72979736 231.11671448 C-165.06466895 231.06682553 -158.39951674 231.02187263 -151.73434186 230.97869211 C-144.14548983 230.92928726 -136.55668073 230.87438119 -128.96787024 230.81901252 C-113.35882817 230.70525079 -97.74974661 230.59839913 -82.140625 230.49609375 C-82.3571875 229.42230469 -82.57375 228.34851563 -82.796875 227.2421875 C-83.07846921 225.80605703 -83.35969984 224.36985524 -83.640625 222.93359375 C-83.78371094 222.22912109 -83.92679688 221.52464844 -84.07421875 220.79882812 C-84.94937425 216.27719137 -85.28585905 212.10122347 -85.140625 207.49609375 C-86.378125 207.45484375 -87.615625 207.41359375 -88.890625 207.37109375 C-96.97765672 206.4399371 -104.58576879 202.6437399 -110.140625 196.68359375 C-116.45202959 188.64809815 -119.03901587 179.61903374 -118.140625 169.49609375 C-117.10435945 164.50525598 -115.77738799 160.43459809 -112.8984375 156.19140625 C-111.05035213 153.0280092 -111.13161919 152.55124047 -111.7734375 148.62109375 C-112.24733554 147.23781928 -112.74604552 145.86286541 -113.265625 144.49609375 C-113.77003947 142.98973991 -114.2660192 141.4805377 -114.75390625 139.96875 C-114.99705566 139.2173877 -115.24020508 138.46602539 -115.49072266 137.69189453 C-123.338466 111.17701713 -116.63430512 80.40692369 -103.81005859 56.62646484 C-89.85347139 32.00771429 -66.19221807 12.88704127 -39.140625 4.49609375 C-26.05200087 0.93952854 -13.51101872 -0.09396117 0 0 Z M-43.140625 284.49609375 C-43.140625 290.10609375 -43.140625 295.71609375 -43.140625 301.49609375 C-40.871875 300.21734375 -38.603125 298.93859375 -36.265625 297.62109375 C-35.55293457 297.22164551 -34.84024414 296.82219727 -34.10595703 296.41064453 C-31.51103319 294.93768948 -29.25992665 293.6153954 -27.140625 291.49609375 C-29.42991553 290.32455082 -31.72180862 289.15871301 -34.015625 287.99609375 C-34.66660156 287.66222656 -35.31757813 287.32835937 -35.98828125 286.984375 C-39.3930721 285.12765658 -39.3930721 285.12765658 -43.140625 284.49609375 Z M-105.140625 397.49609375 C-104.150625 402.44609375 -103.160625 407.39609375 -102.140625 412.49609375 C-99.170625 412.49609375 -96.200625 412.49609375 -93.140625 412.49609375 C-93.140625 407.54609375 -93.140625 402.59609375 -93.140625 397.49609375 C-97.100625 397.49609375 -101.060625 397.49609375 -105.140625 397.49609375 Z " fill="#010101" transform="translate(299.140625,45.50390625)"/>
<path d="M0 0 C1.85538139 -0.00832352 1.85538139 -0.00832352 3.74824524 -0.01681519 C7.11648443 -0.0265536 10.48316886 -0.01409755 13.85124135 0.00946999 C17.38954689 0.02969733 20.92782208 0.02369337 24.46617126 0.0213623 C30.4049935 0.02141574 36.34349616 0.04109326 42.28222656 0.07324219 C49.13232665 0.11014626 55.98200881 0.11891398 62.83219534 0.11194468 C69.44397268 0.10562362 76.05560788 0.11642242 82.66735649 0.13591003 C85.47138952 0.1440499 88.27534955 0.14679993 91.07939339 0.1452179 C94.99969711 0.14416986 98.91962761 0.1684316 102.83984375 0.1953125 C103.99383667 0.1923819 105.14782959 0.18945129 106.33679199 0.18643188 C114.57437345 0.27340362 121.61933708 1.2436413 127.98336029 7.05598545 C133.40031861 13.21285266 135.09539999 19.28957146 134.97045898 27.32250977 C134.976008 28.24731644 134.98155701 29.17212311 134.98727417 30.12495422 C134.99899927 33.15480838 134.9748694 36.1831431 134.94897461 39.21289062 C134.94726165 41.33320549 134.94733107 43.45352246 134.94909668 45.57383728 C134.94744753 50.00621955 134.92882219 54.43809356 134.8972168 58.87036133 C134.85751674 64.53840991 134.85317711 70.20579446 134.86067963 75.87395573 C134.86375566 80.24842867 134.85160658 84.62275365 134.83454895 88.99719048 C134.82754181 91.0866751 134.82439163 93.17617648 134.82524109 95.26567268 C134.82343416 98.18987209 134.80197641 101.11329007 134.77514648 104.03735352 C134.77807709 104.8921228 134.78100769 105.74689209 134.7840271 106.62756348 C134.6862033 113.57231551 133.41202272 120.30860047 128.23022461 125.36523438 C127.71202148 125.89632812 127.19381836 126.42742187 126.65991211 126.97460938 C118.12751483 133.04851931 109.94188492 133.11947306 99.79272461 132.86523438 C98.38845334 132.84512935 96.98415413 132.82688568 95.57983398 132.81054688 C92.1709068 132.76368877 88.76343504 132.69808942 85.35522461 132.61523438 C84.4341795 128.38700977 83.51928769 124.15747338 82.60522461 119.92773438 C82.35256836 118.76822266 82.09991211 117.60871094 81.83959961 116.4140625 C79.48769092 105.50708597 77.44518557 94.58752941 75.35522461 83.61523438 C60.17522461 83.61523438 44.99522461 83.61523438 29.35522461 83.61523438 C26.05522461 99.78523438 22.75522461 115.95523438 19.35522461 132.61523438 C14.59084961 132.69773437 9.82647461 132.78023437 4.91772461 132.86523438 C3.43344971 132.90165039 1.9491748 132.93806641 0.41992188 132.97558594 C-8.73580727 133.05208418 -15.36537147 132.22895324 -22.45727539 126.24023438 C-28.65103608 118.80772155 -30.94568675 113.23299434 -30.93530273 103.74511719 C-30.94201996 102.8615152 -30.94873718 101.97791321 -30.95565796 101.0675354 C-30.97462982 98.1510859 -30.97856202 95.23486672 -30.98071289 92.31835938 C-30.98714234 90.28440253 -30.99387082 88.25044661 -31.00088501 86.2164917 C-31.01285644 81.95289975 -31.01656606 77.68938882 -31.01538086 73.42578125 C-31.0151779 67.97740105 -31.04245683 62.52954381 -31.07692528 57.08128738 C-31.09922727 52.87922813 -31.10321735 48.67729395 -31.10216141 44.47518158 C-31.10451328 42.46743725 -31.1133134 40.45968926 -31.12882614 38.45200348 C-31.14854887 35.63527978 -31.14262306 32.8196736 -31.13061523 30.00292969 C-31.14185425 29.18287445 -31.15309326 28.36281921 -31.16467285 27.51791382 C-31.08478972 20.09760476 -28.56615934 14.46986196 -24.45727539 8.36523438 C-17.0341525 1.10706977 -10.14585772 -0.1168148 0 0 Z " fill="#CBD0D8" transform="translate(104.644775390625,293.384765625)"/>
<path d="M0 0 C1.7596346 -0.00202872 3.51926837 -0.00494673 5.27890015 -0.00869751 C8.93796928 -0.01308107 12.59681638 -0.00681803 16.25585938 0.00732422 C20.90636117 0.02443926 25.55634417 0.01453481 30.20682716 -0.00339317 C33.83090002 -0.01431763 37.45485311 -0.01074576 41.0789299 -0.0030098 C42.79225097 -0.00103295 44.50558353 -0.00337668 46.21889114 -0.01044846 C74.41114208 -0.10135674 98.43321902 9.07045297 118.8359375 28.95703125 C136.86260701 47.89053018 145.84956412 72.1856979 145.62231445 98.06030273 C145.36109496 107.62254385 143.94754121 116.52806522 140.2109375 125.3984375 C138.39800661 125.25806229 136.5855932 125.11098861 134.7734375 124.9609375 C133.25943359 124.83912109 133.25943359 124.83912109 131.71484375 124.71484375 C129.2109375 124.3984375 129.2109375 124.3984375 128.2109375 123.3984375 C128.10909872 121.86087901 128.07525018 120.31874712 128.0690918 118.77783203 C128.05854012 117.29961472 128.05854012 117.29961472 128.04777527 115.79153442 C128.04361099 114.71564056 128.03944672 113.6397467 128.03515625 112.53125 C128.01193495 110.26040763 127.98781672 107.98957429 127.96289062 105.71875 C127.92793668 102.13340426 127.89853158 98.54838507 127.88500977 94.96289062 C127.86941487 91.50610277 127.82910379 88.05027924 127.78515625 84.59375 C127.78801888 83.01027267 127.78801888 83.01027267 127.79093933 81.39480591 C127.58236818 68.53217506 122.64171125 58.13330856 114.0234375 48.7109375 C102.8889617 38.2542124 87.04425861 35.02696806 72.2109375 34.3984375 C71.46834953 38.01855385 71.15277977 41.43809817 71.1796875 45.12109375 C71.18645508 46.32584351 71.18645508 46.32584351 71.19335938 47.55493164 C71.19916016 48.16328857 71.20496094 48.77164551 71.2109375 49.3984375 C71.80519531 49.49866211 72.39945313 49.59888672 73.01171875 49.70214844 C75.74721394 50.17118163 78.47890357 50.6596624 81.2109375 51.1484375 C82.61279297 51.38433594 82.61279297 51.38433594 84.04296875 51.625 C95.046475 53.6256375 101.44048841 57.4178648 108.2109375 66.3984375 C111.2109375 71.5546875 111.2109375 71.5546875 111.2109375 74.3984375 C94.86899152 74.51525508 78.52718104 74.60341768 62.1849184 74.65749836 C54.59685112 74.68327679 47.00904331 74.71841995 39.42114258 74.77563477 C32.80727073 74.82548135 26.1935868 74.85773116 19.57953233 74.86887997 C16.07754293 74.87539679 12.5760911 74.89070425 9.07427406 74.92708778 C5.16440403 74.96738119 1.25505921 74.9683861 -2.6550293 74.96606445 C-4.39535431 74.99302902 -4.39535431 74.99302902 -6.1708374 75.02053833 C-13.9922954 74.97015732 -13.9922954 74.97015732 -18.01228333 72.08561707 C-20.34740069 68.5540135 -20.46887024 66.5528181 -19.7890625 62.3984375 C-17.92197745 60.03346311 -16.46844819 58.73813035 -13.7890625 57.3984375 C-12.08203515 57.32847736 -10.37238247 57.31403596 -8.6640625 57.3359375 C-7.0553125 57.3565625 -5.4465625 57.3771875 -3.7890625 57.3984375 C-3.7890625 52.1184375 -3.7890625 46.8384375 -3.7890625 41.3984375 C-17.63992301 42.0123928 -17.63992301 42.0123928 -29.44140625 48.80859375 C-31.06364118 50.72236075 -31.97081302 52.69416421 -33.0390625 54.9609375 C-36.06307518 60.66148315 -39.84341471 61.56301107 -45.7890625 63.3984375 C-61.89292921 68.76880726 -73.93240565 73.92281055 -82.1015625 89.6484375 C-84.396526 94.33519841 -84.93333283 98.48205321 -85.10546875 103.6953125 C-85.14736328 104.90058594 -85.18925781 106.10585937 -85.23242188 107.34765625 C-85.27173828 108.60191406 -85.31105469 109.85617188 -85.3515625 111.1484375 C-85.39474609 112.41816406 -85.43792969 113.68789062 -85.48242188 114.99609375 C-85.58845905 118.1300813 -85.68926098 121.26424518 -85.7890625 124.3984375 C-91.7290625 124.8934375 -91.7290625 124.8934375 -97.7890625 125.3984375 C-99.7890625 117.3984375 -99.7890625 117.3984375 -101.7890625 109.3984375 C-101.96848389 108.74576904 -102.14790527 108.09310059 -102.33276367 107.4206543 C-106.91596713 87.10889707 -99.91832509 64.83298635 -89.7890625 47.3984375 C-89.23347656 46.40585938 -88.67789063 45.41328125 -88.10546875 44.390625 C-76.3590651 24.61610375 -56.57614892 10.26442768 -34.7890625 3.3984375 C-23.13856795 0.52806409 -11.94363494 -0.04943404 0 0 Z " fill="#B07745" transform="translate(300.7890625,62.6015625)"/>
<path d="M0 0 C0.17390259 1.778302 0.17390259 1.778302 0.35131836 3.5925293 C0.78303331 8.00033246 1.21804969 12.40780466 1.65405273 16.81518555 C1.84212546 18.7210216 2.02930855 20.62694566 2.21557617 22.53295898 C2.48381193 25.27611664 2.75526896 28.01893953 3.02734375 30.76171875 C3.10967758 31.61086349 3.19201141 32.46000824 3.27684021 33.33488464 C3.67084605 37.27680283 4.11602006 41.130438 5 45 C5.55236328 44.5781543 6.10472656 44.15630859 6.67382812 43.72167969 C7.45177734 43.12774414 8.22972656 42.53380859 9.03125 41.921875 C9.8975 41.26050537 10.76375 40.59913574 11.65625 39.91772461 C13.56087012 38.46587691 15.46713746 37.01618774 17.375 35.56860352 C21.87164158 32.15645942 26.35501653 28.7336293 30.78125 25.23046875 C31.85729492 24.39080566 31.85729492 24.39080566 32.95507812 23.53417969 C34.29134238 22.49082149 35.61866824 21.43588554 36.93554688 20.36816406 C41.36073846 16.94566659 41.36073846 16.94566659 44.45019531 17.20825195 C47.12757361 18.03961329 48.81588243 19.022002 51.046875 20.703125 C52.17935669 21.54689697 52.17935669 21.54689697 53.3347168 22.40771484 C54.13176025 23.01566895 54.92880371 23.62362305 55.75 24.25 C56.98907104 25.1793335 56.98907104 25.1793335 58.25317383 26.12744141 C60.84325734 28.07487633 63.42276277 30.03560383 66 32 C66.84030762 32.6384082 67.68061523 33.27681641 68.54638672 33.93457031 C73.37717772 37.60638981 78.19414325 41.29561362 83 45 C84.95180533 30.02116534 86.66772239 15.0469001 88 0 C109.07826735 7.90435026 125.75518148 27.98271266 134.89599609 47.95800781 C141.81643549 63.84418285 143.23820955 78.49307176 143.35009766 95.64672852 C143.36668438 97.50557959 143.39401014 99.36436618 143.43212891 101.22290039 C143.86873283 122.70950809 143.86873283 122.70950809 136.24365234 130.88256836 C130.47726497 136.42195315 124.28250363 138.36654482 116.39990234 138.43579102 C115.67539383 138.44586685 114.95088531 138.45594269 114.204422 138.46632385 C111.83143317 138.49460983 109.45908393 138.50066896 107.0859375 138.50390625 C105.42639918 138.51355591 103.76686338 138.52364902 102.10733032 138.53416443 C98.63920165 138.55207362 95.17129662 138.55769036 91.703125 138.5559082 C87.2629363 138.5556025 82.82417784 138.59666856 78.38432884 138.64822483 C74.961308 138.68159245 71.5386339 138.68766586 68.11546707 138.68607903 C66.47839013 138.68961408 64.84130374 138.70285578 63.20438766 138.72607613 C60.91567242 138.75552227 58.63007549 138.74683819 56.34130859 138.72875977 C55.04115814 138.73303482 53.74100769 138.73730988 52.40145874 138.74171448 C47.63082113 137.70143992 46.62992669 136.05759566 44 132 C43.37181091 129.86949158 43.37181091 129.86949158 43.36889648 127.90991211 C43.35636337 127.16571518 43.34383026 126.42151825 43.33091736 125.6547699 C43.34417557 124.87021927 43.35743378 124.08566864 43.37109375 123.27734375 C43.36868179 122.4542421 43.36626984 121.63114044 43.36378479 120.78309631 C43.36476026 119.05090494 43.37808206 117.31868124 43.40307617 115.58666992 C43.43744847 112.94146565 43.42370604 110.29959441 43.40429688 107.65429688 C43.41119446 105.96613168 43.42086605 104.27797506 43.43359375 102.58984375 C43.42615395 101.40998146 43.42615395 101.40998146 43.41856384 100.20628357 C43.52582302 95.1872019 44.37985931 92.50932437 48 89 C54.10157941 85.9492103 63.24793616 87.04564225 69.94458008 86.82592773 C72.17207198 86.7343737 74.3983632 86.60505676 76.62133789 86.4362793 C91.51964662 85.32994172 91.51964662 85.32994172 98 88 C104.12623336 93.31063655 107.76735699 100.6800478 111 108 C114.2536204 106.74210713 116.91817683 105.50333376 119.6875 103.375 C122.78323699 101 122.78323699 101 125 101 C124.45472656 100.19256348 123.90945313 99.38512695 123.34765625 98.55322266 C121.33030799 95.56333709 119.31902451 92.56941427 117.30957031 89.57421875 C116.43818025 88.27720565 115.56513825 86.98130084 114.69042969 85.68652344 C113.43511385 83.82774511 112.18574755 81.96509239 110.9375 80.1015625 C110.54377197 79.52129303 110.15004395 78.94102356 109.74438477 78.34317017 C107 74.22774341 107 74.22774341 107 72 C93.74300733 72.03810963 80.48629592 72.09754863 67.22952461 72.18390274 C61.07325327 72.22334101 54.91712418 72.25554759 48.76074219 72.27099609 C42.81481259 72.28618641 36.86927421 72.32067494 30.92351913 72.36830902 C28.6598743 72.38309819 26.39617361 72.39103959 24.13248062 72.39188385 C20.95134463 72.3942626 17.77128182 72.42141659 14.59033203 72.45410156 C13.66315872 72.4490712 12.73598541 72.44404083 11.78071594 72.43885803 C1.93575502 72.59443548 -5.91467876 75.95216702 -13.0234375 82.734375 C-18.97872119 89.5605895 -20.21268464 96.06342319 -22 105 C-32.89 105 -43.78 105 -55 105 C-55 99.06 -55 93.12 -55 87 C-53.411875 86.505 -51.82375 86.01 -50.1875 85.5 C-38.23483057 81.11016651 -30.49876623 73.74053254 -25.1875 62.3125 C-22.99666068 56.20121138 -22.93698263 50.58924823 -23.10546875 44.19921875 C-23.12941757 41.59253519 -23.14290611 38.98590661 -23.15649414 36.37915039 C-23.17710672 34.58975132 -23.21736724 32.80046713 -23.27758789 31.01196289 C-23.73557389 16.51530397 -23.73557389 16.51530397 -20.83972168 12.31845093 C-17.67519525 9.11397245 -13.98645743 7.06971251 -10 5 C-8.45197801 3.98883003 -6.90924546 2.96945332 -5.375 1.9375 C-2 0 -2 0 0 0 Z " fill="#FAD56F" transform="translate(278,354)"/>
<path d="M0 0 C5.28 0 10.56 0 16 0 C16.02578125 1.24394531 16.0515625 2.48789063 16.078125 3.76953125 C16.20573292 18.91742266 16.20573292 18.91742266 22.796875 32.109375 C31.27203067 40.05893962 39.04293215 40.42704902 50.24609375 40.29296875 C51.62613969 40.28736543 53.00619165 40.28309881 54.38624573 40.28010559 C57.99816702 40.26871456 61.60971975 40.23929805 65.22149658 40.20599365 C68.91519181 40.17516793 72.60894727 40.16157369 76.30273438 40.14648438 C83.5353233 40.11442181 90.76760978 40.06329639 98 40 C98.19424735 55.47237243 90.75691344 69.3757347 81 81 C80.278125 81.99 79.55625 82.98 78.8125 84 C67.44978423 97.36790091 48.28374615 105.61085016 31.02838135 107.28900146 C24.45419552 107.66428905 17.88694835 107.66996077 11.30419922 107.59692383 C7.87254097 107.56247532 4.44345133 107.57636873 1.01171875 107.59570312 C-22.21571536 107.58175977 -41.44751007 103.16232323 -59.09765625 87.08984375 C-61.10286205 84.8869996 -62.12257371 82.96735894 -63.3125 80.25 C-66.0504567 74.51131058 -69.74961714 69.83177294 -74.546875 65.65234375 C-76.59471111 63.32375592 -77.496038 60.88127724 -78.625 58 C-79.05039063 56.948125 -79.47578125 55.89625 -79.9140625 54.8125 C-80.8611814 51.48736316 -81.28700069 48.681673 -81.56787109 45.26171875 C-81.6508847 44.27518311 -81.73389832 43.28864746 -81.81942749 42.2722168 C-81.87901642 41.52238525 -81.93860535 40.77255371 -82 40 C-80.90911324 40.01332367 -80.90911324 40.01332367 -79.79618835 40.0269165 C-72.897835 40.10750734 -65.99955321 40.16818848 -59.1008482 40.20724869 C-55.55522549 40.22800619 -52.00999606 40.25610231 -48.46459961 40.30175781 C-44.37610384 40.35406955 -40.28801255 40.37304276 -36.19921875 40.390625 C-34.94356613 40.41127014 -33.68791351 40.43191528 -32.39421082 40.45318604 C-23.97285681 40.45530555 -15.40319991 39.84429206 -8.79374695 34.0737915 C-1.87086288 26.79373597 -0.54500611 19.78125556 -0.3125 10.0625 C-0.27833984 9.09248047 -0.24417969 8.12246094 -0.20898438 7.12304688 C-0.1271237 4.7490872 -0.06187096 2.37456473 0 0 Z " fill="#EECEB2" transform="translate(314,220)"/>
<path d="M0 0 C0.556875 0.9075 1.11375 1.815 1.6875 2.75 C4.92781272 7.30395301 9.07063369 9.53531684 14 12 C15.73555183 12.1050016 17.47508932 12.14658282 19.21377563 12.15821838 C20.31877914 12.1680072 21.42378265 12.17779602 22.56227112 12.18788147 C24.38890541 12.19651466 24.38890541 12.19651466 26.25244141 12.20532227 C28.1694561 12.22017166 28.1694561 12.22017166 30.12519836 12.23532104 C33.63527845 12.26239875 37.14537201 12.28339276 40.65549898 12.30332303 C44.32173919 12.32516494 47.9879377 12.3525624 51.65414429 12.37937927 C58.59912607 12.42933048 65.54413097 12.47426028 72.48915803 12.51740164 C80.39476467 12.56675329 88.30032947 12.62167909 96.20589566 12.67708123 C112.47055881 12.79093854 128.73526082 12.89757166 145 13 C145 18.94 145 24.88 145 31 C143.11361816 30.97381592 141.22723633 30.94763184 139.28369141 30.9206543 C133.01735648 30.83968965 126.75114627 30.78242408 120.48443031 30.74093914 C116.68870171 30.71495984 112.89354442 30.67977993 109.09814453 30.62280273 C105.4281804 30.56805992 101.75876211 30.53849196 98.08842087 30.52561378 C96.69547316 30.51644884 95.30255183 30.49855339 93.90983963 30.47134972 C85.26536616 30.30937353 78.16230965 30.77481097 71 36 C65.07890317 42.18410406 62.89802002 48.33233966 62.375 56.875 C62.189375 59.906875 62.189375 59.906875 62 63 C56.72 63 51.44 63 46 63 C45.938125 60.89625 45.87625 58.7925 45.8125 56.625 C45.23626322 48.91588629 43.74947663 42.63585612 38.06640625 37.125 C32.49324782 32.74232721 27.71851057 30.74470016 20.55737305 30.77294922 C19.27642258 30.77310028 17.99547211 30.77325134 16.67570496 30.77340698 C15.28770795 30.7836187 13.89971256 30.79405067 12.51171875 30.8046875 C11.08397113 30.8084205 9.65622095 30.81126612 8.22846985 30.81326294 C4.48181001 30.82087682 0.73530674 30.84050581 -3.0112915 30.8626709 C-6.83888634 30.88317786 -10.66650662 30.892275 -14.49414062 30.90234375 C-21.9961649 30.92375401 -29.49806046 30.95786259 -37 31 C-37.10092557 23.27440148 -35.67663049 18.0884198 -30.5625 12.1875 C-29.716875 11.465625 -28.87125 10.74375 -28 10 C-27.33097656 9.37351563 -26.66195312 8.74703125 -25.97265625 8.1015625 C-21.88680867 5.21301322 -17.58821548 3.78674743 -12.875 2.1875 C-11.96878906 1.86330078 -11.06257813 1.53910156 -10.12890625 1.20507812 C-3.38423528 -1.12807843 -3.38423528 -1.12807843 0 0 Z " fill="#EBCCB0" transform="translate(268,140)"/>
<path d="M0 0 C1.17823837 -0.00241196 2.35647675 -0.00482391 3.57041931 -0.00730896 C6.05585097 -0.00633137 8.54130463 0.00704085 11.02661133 0.03198242 C14.83034169 0.06632047 18.63175233 0.05262655 22.43554688 0.03320312 C24.85287447 0.04010082 27.27019607 0.0497725 29.6875 0.0625 C31.39233299 0.0550602 31.39233299 0.0550602 33.13160706 0.04747009 C41.00178203 0.1648975 41.00178203 0.1648975 44.97045898 2.53930664 C47.55085757 5.52344817 47.90546841 7.14317991 47.93847656 10.99926758 C47.94808411 11.90393265 47.95769165 12.80859772 47.96759033 13.74067688 C47.97184021 14.72086288 47.97609009 15.70104889 47.98046875 16.7109375 C47.98616882 17.7172673 47.9918689 18.72359711 47.9977417 19.76042175 C48.0071996 21.8930862 48.01372881 24.02576532 48.01757812 26.15844727 C48.02727335 29.41774101 48.05828534 32.67640151 48.08984375 35.93554688 C48.09637476 38.00650667 48.10162484 40.07747098 48.10546875 42.1484375 C48.11781555 43.12255081 48.13016235 44.09666412 48.1428833 45.10029602 C48.1147773 53.66126043 48.1147773 53.66126043 44.77734375 57.62890625 C42.21716339 58.90899643 40.35569095 58.78397748 37.48901367 58.82177734 C36.38414108 58.83784027 35.27926849 58.8539032 34.14091492 58.87045288 C29.08572951 58.9148266 24.0306763 58.95596426 18.9753418 58.97900391 C16.30642814 58.99233912 13.63932188 59.02286427 10.97045898 59.06103516 C7.12850862 59.11571976 3.28759931 59.13766612 -0.5546875 59.15234375 C-1.7475386 59.17501312 -2.94038971 59.1976825 -4.16938782 59.22103882 C-8.98694676 59.20871731 -12.24258938 59.18921808 -16.47070312 56.77197266 C-19.05195788 52.14110954 -18.95806641 48.04216333 -18.921875 42.81640625 C-18.9290303 41.7699292 -18.93618561 40.72345215 -18.94355774 39.64526367 C-18.95132988 37.43636934 -18.946333 35.22739812 -18.92944336 33.01855469 C-18.91021825 29.63980211 -18.94960973 26.26516245 -18.99414062 22.88671875 C-18.99443099 20.7382788 -18.99129094 18.58983508 -18.984375 16.44140625 C-18.99965744 15.43295654 -19.01493988 14.42450684 -19.03068542 13.38549805 C-18.95321703 8.7207817 -18.73629056 6.3343435 -15.93896484 2.49243164 C-11.1977101 -0.6283843 -5.46142158 -0.06382255 0 0 Z " fill="#67D2F0" transform="translate(365.22265625,185.37109375)"/>
<path d="M0 0 C1.59240509 -0.02409439 1.59240509 -0.02409439 3.21697998 -0.04867554 C8.07921761 -0.09309254 12.94131787 -0.1341968 17.80371094 -0.15722656 C20.3682564 -0.17378249 22.93275579 -0.20106728 25.49707031 -0.23925781 C29.19262663 -0.29402443 32.8871003 -0.31590235 36.58300781 -0.33056641 C37.72695007 -0.35323578 38.87089233 -0.37590515 40.04949951 -0.39926147 C48.94971312 -0.37564795 48.94971312 -0.37564795 52.6340332 2.04980469 C55.95510276 6.63385632 55.75673709 10.46997634 55.67285156 16.00537109 C55.67622025 17.05184814 55.67958893 18.0983252 55.68305969 19.17651367 C55.68276115 21.38546675 55.66754118 23.59446142 55.63842773 25.80322266 C55.59876292 29.18178914 55.61772042 32.55642784 55.64355469 35.93505859 C55.63599521 38.0835113 55.62504139 40.23195531 55.61035156 42.38037109 C55.62082771 43.89304565 55.62082771 43.89304565 55.6315155 45.4362793 C55.5446829 49.7552975 55.28794639 52.51995978 53.15478516 56.3293457 C48.04266517 59.2663329 43.10838926 58.88652676 37.31347656 58.82177734 C35.47385094 58.82539528 35.47385094 58.82539528 33.59706116 58.8290863 C31.00730146 58.82810774 28.41752087 58.81471231 25.82788086 58.78979492 C21.8594681 58.75546483 17.89327876 58.76914382 13.92480469 58.78857422 C11.40851915 58.78167661 8.89223937 58.77200501 6.37597656 58.75927734 C4.59307472 58.76671715 4.59307472 58.76671715 2.77415466 58.77430725 C1.66943314 58.75847092 0.56471161 58.74263458 -0.57348633 58.72631836 C-1.54435684 58.72011978 -2.51522736 58.7139212 -3.51551819 58.70753479 C-6.80886028 58.04887418 -7.9864329 56.75289303 -10.08886719 54.19287109 C-11.25846015 51.85368517 -11.23369099 50.4298619 -11.26586914 47.82250977 C-11.27870438 46.9178447 -11.29153961 46.01317963 -11.30476379 45.08110046 C-11.31215073 44.10091446 -11.31953766 43.12072845 -11.32714844 42.11083984 C-11.33522018 41.10451004 -11.34329193 40.09818024 -11.35160828 39.06135559 C-11.36545436 36.92869798 -11.37617416 34.79601816 -11.3840332 32.66333008 C-11.40124312 29.4038689 -11.44512472 26.14542263 -11.48925781 22.88623047 C-11.49938486 20.81527439 -11.50790092 18.74430969 -11.51464844 16.67333984 C-11.53215652 15.69922653 -11.54966461 14.72511322 -11.56770325 13.72148132 C-11.55372233 9.35301053 -11.51668548 6.88861821 -9.18725586 3.1003418 C-6.0076037 0.20998434 -4.20841051 0.05777527 0 0 Z " fill="#67D2F0" transform="translate(242.0888671875,185.80712890625)"/>
<path d="M0 0 C1.24116128 -0.00128164 1.24116128 -0.00128164 2.50739652 -0.00258917 C5.2896462 -0.00424085 8.07183604 0.00127234 10.8540802 0.00672913 C12.84464517 0.00701109 14.83521024 0.00685308 16.82577515 0.00628662 C22.23865707 0.00599901 27.65151697 0.01188991 33.06439376 0.01886058 C38.71786498 0.02510012 44.37133666 0.02569839 50.02481079 0.02688599 C60.73450428 0.02999752 71.4441876 0.03820853 82.1538766 0.04823548 C94.34476486 0.05940211 106.5356536 0.06490845 118.72654569 0.06993091 C143.80788139 0.08039128 168.88920734 0.09818808 193.97053528 0.12025452 C194.30053528 5.73025452 194.63053528 11.34025452 194.97053528 17.12025452 C123.69053528 17.12025452 52.41053528 17.12025452 -21.02946472 17.12025452 C-19.82464544 8.68651958 -19.82464544 8.68651958 -17.02946472 5.12025452 C-11.24030876 0.77838754 -7.06326014 -0.02647103 0 0 Z " fill="#919AA5" transform="translate(112.02946472167969,474.87974548339844)"/>
<path d="M0 0 C49.17 0 98.34 0 149 0 C149 5.94 149 11.88 149 18 C99.83 18 50.66 18 0 18 C0 12.06 0 6.12 0 0 Z " fill="#000000" transform="translate(0,235)"/>
<path d="M0 0 C49.17 0 98.34 0 149 0 C149 5.94 149 11.88 149 18 C99.83 18 50.66 18 0 18 C0 12.06 0 6.12 0 0 Z " fill="#000000" transform="translate(0,202)"/>
<path d="M0 0 C49.17 0 98.34 0 149 0 C149 5.94 149 11.88 149 18 C99.83 18 50.66 18 0 18 C0 12.06 0 6.12 0 0 Z " fill="#000000" transform="translate(0,169)"/>
<path d="M0 0 C6.6 0 13.2 0 20 0 C23.24245832 14.8820523 26.39989857 29.77837516 29.40206909 44.71078491 C29.71711749 46.27740715 30.03313583 47.84383464 30.35012817 49.4100647 C30.79641673 51.61781958 31.23869855 53.82633746 31.6796875 56.03515625 C32.06229736 57.94373413 32.06229736 57.94373413 32.45263672 59.89086914 C33 63 33 63 33 66 C17.82 66 2.64 66 -13 66 C-11.87478731 55.87308576 -11.87478731 55.87308576 -10.89257812 50.96118164 C-10.67565308 49.86717545 -10.45872803 48.77316925 -10.23522949 47.64601135 C-10.00291626 46.49567917 -9.77060303 45.34534698 -9.53125 44.16015625 C-9.29088013 42.95685165 -9.05051025 41.75354706 -8.80285645 40.51377869 C-8.29702441 37.98627084 -7.78930131 35.45914079 -7.27978516 32.93237305 C-6.4978089 29.05162614 -5.72309506 25.16947873 -4.94921875 21.28710938 C-4.45615821 18.82803894 -3.96268334 16.36905153 -3.46875 13.91015625 C-3.23643677 12.74565445 -3.00412354 11.58115265 -2.76477051 10.38136292 C-2.54784546 9.30942184 -2.33092041 8.23748077 -2.10742188 7.13305664 C-1.91724487 6.18757462 -1.72706787 5.24209259 -1.53112793 4.26795959 C-1 2 -1 2 0 0 Z " fill="#A7AEB9" transform="translate(147,393)"/>
<path d="M0 0 C5.94 0.66 11.88 1.32 18 2 C14.264934 29.63620401 10.42645769 57.25609916 6.42655563 84.85515594 C6.12485106 86.9385285 5.82394402 89.02201493 5.52322388 91.10552979 C4.95837575 95.01737459 4.38967978 98.92865399 3.8203125 102.83984375 C3.65080582 104.0136409 3.48129913 105.18743805 3.30665588 106.39680481 C3.14890182 107.47491928 2.99114777 108.55303375 2.82861328 109.66381836 C2.69206329 110.60253281 2.55551331 111.54124725 2.41482544 112.50840759 C2.05111277 114.69299809 1.53713415 116.85146341 1 119 C-4.61 118.34 -10.22 117.68 -16 117 C-15.3274755 104.67092296 -13.6456343 92.58217398 -11.875 80.37109375 C-11.56455165 78.20595286 -11.25449999 76.04075506 -10.94482422 73.87550354 C-10.29887549 69.36603136 -9.64976779 64.85703021 -8.99804688 60.34838867 C-8.1631406 54.57225674 -7.33377257 48.79534748 -6.50643921 43.01812649 C-5.71450125 37.48967921 -4.91986515 31.96162079 -4.125 26.43359375 C-3.97415955 25.38298704 -3.82331909 24.33238033 -3.66790771 23.24993706 C-3.24103106 20.2802586 -2.81223849 17.31086349 -2.3828125 14.34155273 C-2.25706848 13.46515137 -2.13132446 12.58875 -2.00177002 11.68579102 C-1.82517853 10.46894875 -1.82517853 10.46894875 -1.64501953 9.2275238 C-1.54399933 8.52763053 -1.44297913 7.82773726 -1.33889771 7.10663509 C-0.95603077 4.72668118 -0.47274842 2.36374209 0 0 Z " fill="#000000" transform="translate(82,3)"/>
<path d="M0 0 C3.6029222 2.0949649 6.40935833 4.18594675 9.3125 7.1875 C10.00988281 7.90292969 10.70726562 8.61835938 11.42578125 9.35546875 C12.20501953 10.16951172 12.20501953 10.16951172 13 11 C11.39626852 15.00517396 8.57886014 17.6771098 5.5546875 20.640625 C5.02481232 21.16767029 4.49493713 21.69471558 3.94900513 22.23773193 C2.26232175 23.91325675 0.56880436 25.58167722 -1.125 27.25 C-2.27259388 28.38755851 -3.41973461 29.52557436 -4.56640625 30.6640625 C-7.37238137 33.44803465 -10.18450464 36.2256576 -13 39 C-7.89551178 45.18134869 -2.31705058 50.79822878 3.375 56.4375 C4.30183594 57.35982422 5.22867188 58.28214844 6.18359375 59.23242188 C8.45345846 61.49058625 10.72563538 63.74636942 13 66 C11.30413874 69.63303084 9.26199512 71.94549046 6.375 74.75 C5.55773438 75.54921875 4.74046875 76.3484375 3.8984375 77.171875 C3.27195313 77.77515625 2.64546875 78.3784375 2 79 C-1.22745524 77.58098338 -3.37258107 75.87144235 -5.85058594 73.37646484 C-6.59105164 72.63584808 -7.33151733 71.89523132 -8.09442139 71.13217163 C-9.27744843 69.93366074 -9.27744843 69.93366074 -10.484375 68.7109375 C-11.29996887 67.89251373 -12.11556274 67.07408997 -12.95587158 66.23086548 C-15.55864562 63.61690027 -18.15437762 60.99606495 -20.75 58.375 C-22.5138634 56.60110546 -24.2781809 54.82766234 -26.04296875 53.0546875 C-30.36726136 48.70834858 -34.6857933 44.35634919 -39 40 C-34.62970634 34.77051256 -30.03088196 29.89710045 -25.1953125 25.09765625 C-24.4713327 24.3750914 -23.74735291 23.65252655 -23.00143433 22.9080658 C-20.71164735 20.62383078 -18.41839007 18.34311688 -16.125 16.0625 C-14.56226839 14.50478961 -12.9997661 12.94684913 -11.4375 11.38867188 C-7.6276469 7.58978398 -3.81494621 3.79377287 0 0 Z " fill="#000000" transform="translate(43,23)"/>
<path d="M0 0 C5.22948744 4.37029366 10.10289955 8.96911804 14.90234375 13.8046875 C15.6249086 14.5286673 16.34747345 15.25264709 17.0919342 15.99856567 C19.37616922 18.28835265 21.65688312 20.58160993 23.9375 22.875 C25.49521039 24.43773161 27.05315087 26.0002339 28.61132812 27.5625 C32.41021602 31.3723531 36.20622713 35.18505379 40 39 C35.62970634 44.22948744 31.03088196 49.10289955 26.1953125 53.90234375 C25.4713327 54.6249086 24.74735291 55.34747345 24.00143433 56.0919342 C21.71164735 58.37616922 19.41839007 60.65688312 17.125 62.9375 C15.56226839 64.49521039 13.9997661 66.05315087 12.4375 67.61132812 C8.6276469 71.41021602 4.81494621 75.20622713 1 79 C-0.04796218 78.15356901 -1.08792692 77.29723808 -2.125 76.4375 C-2.99511719 75.72400391 -2.99511719 75.72400391 -3.8828125 74.99609375 C-6.82159088 72.22540048 -9.37148276 69.06660344 -12 66 C-3.42 57.42 5.16 48.84 14 40 C10.38095567 35.77778161 6.94860025 31.82555739 3.0390625 27.94140625 C2.15605469 27.06162109 1.27304688 26.18183594 0.36328125 25.27539062 C-0.54035156 24.38013672 -1.44398437 23.48488281 -2.375 22.5625 C-3.30183594 21.64017578 -4.22867188 20.71785156 -5.18359375 19.76757812 C-7.45345846 17.50941375 -9.72563538 15.25363058 -12 13 C-8.16171005 8.46548035 -4.25222428 4.15098084 0 0 Z " fill="#000000" transform="translate(121,23)"/>
<path d="M0 0 C5.61 0 11.22 0 17 0 C17.391875 1.5675 17.78375 3.135 18.1875 4.75 C19.54519552 9.28419069 20.7971096 11.53977147 25 14 C25.61875 14.4125 26.2375 14.825 26.875 15.25 C31.5992388 16.9173784 35.70267119 16.37939277 40.1875 14.375 C44.02205846 12.26450658 46.01860371 9.96279257 48 6 C48.33 4.02 48.66 2.04 49 0 C54.61 0 60.22 0 66 0 C65.54165599 10.69469357 62.33974424 18.8837567 54.34375 26.23828125 C46.54203633 32.10256936 38.34828532 33.90321544 28.6875 33.546875 C19.59880997 32.19897606 11.52632707 27.35295619 6 20 C2.04095922 13.56811987 0 7.60611485 0 0 Z " fill="#050403" transform="translate(289,277)"/>
<path d="M0 0 C19.14 0 38.28 0 58 0 C58 5.94 58 11.88 58 18 C38.86 18 19.72 18 0 18 C0 12.06 0 6.12 0 0 Z " fill="#000000" transform="translate(454,458)"/>
<path d="M0 0 C19.14 0 38.28 0 58 0 C58 5.94 58 11.88 58 18 C38.86 18 19.72 18 0 18 C0 12.06 0 6.12 0 0 Z " fill="#000000" transform="translate(454,425)"/>
<path d="M0 0 C19.14 0 38.28 0 58 0 C58 5.94 58 11.88 58 18 C38.86 18 19.72 18 0 18 C0 12.06 0 6.12 0 0 Z " fill="#000000" transform="translate(454,392)"/>
<path d="M0 0 C19.14 0 38.28 0 58 0 C58 5.94 58 11.88 58 18 C38.86 18 19.72 18 0 18 C0 12.06 0 6.12 0 0 Z " fill="#000000" transform="translate(454,359)"/>
<path d="M0 0 C6.96989474 3.97160936 11.14662672 9.36469276 13.625 16.9375 C13.625 18.9175 13.625 20.8975 13.625 22.9375 C8.015 22.9375 2.405 22.9375 -3.375 22.9375 C-4.035 20.9575 -4.695 18.9775 -5.375 16.9375 C-8.55602598 15.34698701 -11.9119099 15.54009622 -15.375 15.9375 C-18.49310922 17.94918336 -18.4294675 19.15536998 -19.375 22.9375 C-24.985 22.9375 -30.595 22.9375 -36.375 22.9375 C-35.31783437 14.48017495 -33.71404073 8.59648665 -27.08203125 3.00390625 C-18.68642031 -2.70730054 -9.52552998 -4.4086292 0 0 Z " fill="#030607" transform="translate(275.375,205.0625)"/>
<path d="M0 0 C4.99579026 3.05403027 7.80169613 5.91417079 10.3828125 11.203125 C10.89457031 12.22277344 11.40632813 13.24242187 11.93359375 14.29296875 C13.0703125 17.265625 13.0703125 17.265625 13.0703125 22.265625 C7.4603125 22.265625 1.8503125 22.265625 -3.9296875 22.265625 C-4.5896875 20.615625 -5.2496875 18.965625 -5.9296875 17.265625 C-7.92525863 14.8374228 -7.92525863 14.8374228 -11.8671875 14.953125 C-14.49144201 15.02443626 -15.63353564 15.07455928 -17.8671875 16.515625 C-19.20356422 18.52199397 -19.20356422 18.52199397 -19.9296875 22.265625 C-25.5396875 22.265625 -31.1496875 22.265625 -36.9296875 22.265625 C-36.69177181 14.77128066 -35.01266331 9.87478878 -29.9296875 4.265625 C-20.66631053 -3.2618551 -11.02305036 -5.28100511 0 0 Z " fill="#030607" transform="translate(391.9296875,205.734375)"/>
<path d="M0 0 C0.12886183 7.40239645 -0.20274098 14.63959083 -1 22 C-4.07935236 20.57199551 -6.66833881 18.86102711 -9.37109375 16.8125 C-10.19287109 16.19632812 -11.01464844 15.58015625 -11.86132812 14.9453125 C-13.57628933 13.65031526 -15.28983719 12.35344414 -17.00195312 11.0546875 C-17.82501953 10.43851562 -18.64808594 9.82234375 -19.49609375 9.1875 C-20.61262329 8.34251953 -20.61262329 8.34251953 -21.75170898 7.48046875 C-24.18641472 5.87724847 -26.16384177 4.71576195 -29 4 C-31.34099854 4.9370786 -31.34099854 4.9370786 -33.46875 6.7265625 C-34.69658203 7.65662109 -34.69658203 7.65662109 -35.94921875 8.60546875 C-36.79097656 9.27191406 -37.63273437 9.93835938 -38.5 10.625 C-39.34175781 11.26824219 -40.18351562 11.91148437 -41.05078125 12.57421875 C-44.40619426 15.14758274 -47.71313245 17.7622019 -50.96875 20.4609375 C-53 22 -53 22 -55 22 C-55.79725902 14.63959083 -56.12886183 7.40239645 -56 0 C-54.31409158 -0.48473678 -52.62617455 -0.96248926 -50.9375 -1.4375 C-49.99777344 -1.70433594 -49.05804688 -1.97117187 -48.08984375 -2.24609375 C-31.96511541 -6.18044592 -15.8002084 -4.27445251 0 0 Z " fill="#F4BF27" transform="translate(350,347)"/>
<path d="M0 0 C1.51980469 0.03383789 1.51980469 0.03383789 3.0703125 0.06835938 C5.54752285 0.12678415 8.02396318 0.21644685 10.5 0.3125 C10.17 5.9225 9.84 11.5325 9.5 17.3125 C-1.39 17.3125 -12.28 17.3125 -23.5 17.3125 C-23.5 11.03227651 -23.37423699 9.86472846 -19.5 5.3125 C-13.36871534 0.03048112 -7.85522849 -0.33503271 0 0 Z " fill="#E6C7AC" transform="translate(296.5,441.6875)"/>
<path d="M0 0 C0 10.89 0 21.78 0 33 C-8.52036199 31.78280543 -8.52036199 31.78280543 -13 28 C-16.37067775 23.47619565 -17.73553502 19.94245071 -17.4453125 14.2734375 C-16.50214395 9.45831384 -14.08976165 5.68989837 -10.28515625 2.61328125 C-6.52323945 0.2672281 -4.54535824 0 0 0 Z " fill="#E4C6AB" transform="translate(215,203)"/>
<path d="M0 0 C6.47824616 0.92546374 10.09458337 1.45593142 14.26171875 6.5390625 C17.03958939 10.80821106 17.94452356 14.94005237 17 20 C15.55259767 24.46417911 13.74621235 27.35328263 10.1875 30.4375 C7 32 7 32 0 33 C0 22.11 0 11.22 0 0 Z " fill="#E4C6AB" transform="translate(429,203)"/>
<path d="M0 0 C5.61 0 11.22 0 17 0 C17 5.94 17 11.88 17 18 C11.39 18 5.78 18 0 18 C0 12.06 0 6.12 0 0 Z " fill="#000000" transform="translate(132,136)"/>
<path d="M0 0 C5.61 0 11.22 0 17 0 C17 5.94 17 11.88 17 18 C11.39 18 5.78 18 0 18 C0 12.06 0 6.12 0 0 Z " fill="#000000" transform="translate(99,136)"/>
<path d="M0 0 C5.61 0 11.22 0 17 0 C17 5.94 17 11.88 17 18 C11.39 18 5.78 18 0 18 C0 12.06 0 6.12 0 0 Z " fill="#000000" transform="translate(66,136)"/>
<path d="M0 0 C5.61 0 11.22 0 17 0 C17 5.94 17 11.88 17 18 C11.39 18 5.78 18 0 18 C0 12.06 0 6.12 0 0 Z " fill="#000000" transform="translate(33,136)"/>
<path d="M0 0 C5.61 0 11.22 0 17 0 C17 5.94 17 11.88 17 18 C11.39 18 5.78 18 0 18 C0 12.06 0 6.12 0 0 Z " fill="#000000" transform="translate(0,136)"/>
</svg>
