<?xml version="1.0" encoding="utf-8"?>
<!-- Generator: Adobe Illustrator 19.0.0, SVG Export Plug-In . SVG Version: 6.00 Build 0)  -->
<svg version="1.1" id="Capa_1" xmlns="http://www.w3.org/2000/svg" xmlns:xlink="http://www.w3.org/1999/xlink" x="0px" y="0px"
	 viewBox="0 0 510.2 510.2" style="enable-background:new 0 0 510.2 510.2;" xml:space="preserve">
<style type="text/css">
	.st0{fill:none;stroke:#FFFFFF;stroke-width:6;stroke-miterlimit:10;}
	.st1{fill:#FFFFFF;stroke:#FFFFFF;stroke-miterlimit:10;}
	.st2{fill:none;}
	.st3{fill:#EAE4E7;}
	.st4{fill:#EAE4E7;stroke:#FFFFFF;stroke-miterlimit:10;}
</style>
<path class="st0" d="M436.6,180.1v76.4c0,4.4-3.6,8-8,8H67.1c-4.4,0-8-3.6-8-8v-76.4c0-4.4,3.6-8,8-8h361.5
	C433.1,172.1,436.6,175.7,436.6,180.1z"/>
<path class="st1" d="M300.2,289.2V350c0,4.4-3.6,8-8,8h-88.6c-4.4,0-8-3.6-8-8v-60.8c0-4.4,3.6-8,8-8h88.6
	C296.6,281.2,300.2,284.8,300.2,289.2z"/>
<path class="st1" d="M163.8,289.2V350c0,4.4-3.6,8-8,8H67.1c-4.4,0-8-3.6-8-8v-60.8c0-4.4,3.6-8,8-8h88.6
	C160.2,281.2,163.8,284.8,163.8,289.2z"/>
<path class="st1" d="M436.6,289.2v42.7l-41.6-0.1L366.9,358H340c-4.4,0-8-3.6-8-8v-60.8c0-4.4,3.6-8,8-8h88.6
	C433.1,281.2,436.6,284.8,436.6,289.2z"/>
<path class="st1" d="M371.3,437.7h-340c-7,0-12.7-7.2-12.7-16v12c0,8.8,5.7,16,12.7,16h340V437.7z"/>
<path class="st1" d="M200.7,383.6H295c2.2,0,4-1.8,4-4s-1.8-4-4-4h-94.3c-2.2,0-4,1.8-4,4S198.5,383.6,200.7,383.6L200.7,383.6z"/>
<path class="st1" d="M334.8,383.6h33.8c1.5,0,2.8-1.8,2.8-4s-1.2-4-2.8-4h-33.8c-1.5,0-2.8,1.8-2.8,4S333.2,383.6,334.8,383.6
	L334.8,383.6z"/>
<path class="st1" d="M334.8,409.6h33.8c1.5,0,2.8-1.8,2.8-4s-1.2-4-2.8-4h-33.8c-1.5,0-2.8,1.8-2.8,4S333.2,409.6,334.8,409.6
	L334.8,409.6z"/>
<path class="st1" d="M200.7,409.6H295c2.2,0,4-1.8,4-4s-1.8-4-4-4h-94.3c-2.2,0-4,1.8-4,4S198.5,409.6,200.7,409.6L200.7,409.6z"/>
<path class="st1" d="M64.3,383.6h94.3c2.2,0,4-1.8,4-4s-1.8-4-4-4H64.3c-2.2,0-4,1.8-4,4S62.1,383.6,64.3,383.6z"/>
<path class="st1" d="M64.3,409.6h94.3c2.2,0,4-1.8,4-4s-1.8-4-4-4H64.3c-2.2,0-4,1.8-4,4S62.1,409.6,64.3,409.6z"/>
<path class="st1" d="M18.5,261c2.2,0,4-1.8,4-4v-40c0-2.2-1.8-4-4-4s-4,1.8-4,4v40C14.5,259.2,16.3,261,18.5,261z"/>
<circle class="st1" cx="161" cy="88.7" r="13"/>
<circle class="st1" cx="113.7" cy="88.7" r="13"/>
<circle class="st1" cx="66.3" cy="88.7" r="13"/>
<path class="st2" d="M461.2,83.8H229.3c-9.7,0-18.8-4.7-24.3-12.7l-10.3-14.8c-4-5.8-10.6-9.3-17.7-9.3H34.5c-6.6,0-12,5.4-12,12v68
	h450.7V95.8C473.2,89.2,467.8,83.8,461.2,83.8z"/>
<polygon class="st2" points="395.9,469.8 387.2,461.1 387.2,461.2 395.9,469.9 479.2,469.9 487.7,460.7 487.7,460.6 479.2,469.8 "/>
<path class="st1" d="M36.1,445.7c-7.1,0-12.9-5.4-12.9-12V273c0-2.2-1.9-4-4.3-4s-4.3,1.8-4.3,4v160.7c0,11,9.7,20,21.6,20h335.3v-8
	H36.1z"/>
<path class="st1" d="M481.2,95.9c0-11.1-8.9-20-20-20H229.3c-7.1,0-13.7-3.5-17.7-9.3l-10.3-14.9c-5.5-8-14.6-12.7-24.3-12.7H34.5
	c-11,0-20,9-20,20v141c0,2.2,1.8,4,4,4s4-1.8,4-4v-65h450.7v204.4l8,8V95.9z M473.2,127H22.5V59c0-6.6,5.4-12,12-12H177
	c7.1,0,13.7,3.5,17.7,9.3L205,71.1c5.5,8,14.6,12.7,24.3,12.7h231.9c6.6,0,12,5.4,12,12V127z"/>
<polygon class="st3" points="387.2,359.2 395.9,349.3 460.4,349.3 473.7,362.7 473.7,359.9 461.2,347.4 395,347.4 385.2,358.6 
	385.2,452.6 387.2,452.6 "/>
<polygon class="st3" points="479.2,365.4 479.2,368.2 487.7,376.8 487.7,460.6 487.7,460.7 479.2,469.9 395.9,469.9 387.2,461.2 
	387.2,461.1 387.2,458.2 385.2,458.2 385.2,462 395.1,471.9 480.1,471.9 489.8,461.5 489.8,375.9 "/>
<rect x="385.2" y="452.6" class="st3" width="2" height="5.5"/>
<polygon class="st3" points="479.2,368.2 479.2,365.4 473.7,359.9 473.7,362.7 "/>
<polygon class="st4" points="485.7,377.6 485.7,459.9 478.4,467.9 396.7,467.9 389.1,460.4 389.1,458.2 387.2,458.2 387.2,461.1 
	395.9,469.8 479.2,469.8 487.7,460.6 487.7,376.8 479.2,368.2 479.2,371.1 "/>
<polygon class="st4" points="389.1,360 396.8,351.3 459.6,351.3 473.7,365.5 473.7,362.7 460.4,349.3 395.9,349.3 387.2,359.2 
	387.2,452.6 389.1,452.6 "/>
<rect x="387.2" y="452.6" class="st4" width="1.9" height="5.5"/>
<polygon class="st4" points="473.7,365.5 479.2,371.1 479.2,368.2 473.7,362.7 "/>
<path class="st1" d="M434.8,388.8c-1.5-0.5-3.3,0-3.9,1.1l-9.8,16.5l-9.8-16.5c-0.7-1.1-2.4-1.6-3.9-1.1c-1.5,0.5-2.1,1.8-1.5,2.9
	l12.1,20.2l-12.1,20.2c-0.7,1.1,0,2.4,1.5,2.9c0.4,0.2,0.8,0.2,1.2,0.2c1.2,0,2.3-0.5,2.8-1.3l9.8-16.5l9.8,16.5
	c0.5,0.8,1.6,1.3,2.8,1.3c0.4,0,0.8-0.1,1.2-0.2c1.5-0.5,2.1-1.8,1.5-2.9l-12.1-20.2l12.1-20.2C437,390.5,436.3,389.2,434.8,388.8z"
	/>
<path class="st1" d="M466.5,386.2c-1.7,0-3,1-3,2.2v13.8h-9.4c-8.6,0-15.6,5.1-15.6,11.3v12.8c0,6.2,7,11.3,15.6,11.3h15.3v-49.2
	C469.5,387.2,468.1,386.2,466.5,386.2z M463.5,433.2h-9.4c-5.3,0-9.6-3.1-9.6-7v-12.8c0-3.8,4.4-7,9.6-7h9.4V433.2z"/>
</svg>
