<?xml version="1.0" encoding="utf-8"?>
<!-- Generator: Adobe Illustrator 19.0.0, SVG Export Plug-In . SVG Version: 6.00 Build 0)  -->
<svg version="1.1" id="Capa_1" xmlns="http://www.w3.org/2000/svg" xmlns:xlink="http://www.w3.org/1999/xlink" x="0px" y="0px"
	 viewBox="-41 164.9 512 512" style="enable-background:new -41 164.9 512 512;" xml:space="preserve">
<style type="text/css">
	.st0{fill:#FFFFFF;}
</style>
<path class="st0" d="M420.3,205.5H-6.3c-8.8,0-16,7.2-16,16v12c0-8.8,7.2-16,16-16h426.7c8.8,0,16,7.2,16,16v-12
	C436.3,212.7,429.2,205.5,420.3,205.5z"/>
<circle class="st0" cx="120.1" cy="239.2" r="13"/>
<circle class="st0" cx="72.8" cy="239.2" r="13"/>
<circle class="st0" cx="25.5" cy="239.2" r="13"/>
<path class="st0" d="M130.3,406.9H103c-2.2,0-4-1.8-4-4s1.8-4,4-4h27.2c2.2,0,4,1.8,4,4S132.5,406.9,130.3,406.9z"/>
<path class="st0" d="M79,406.9H11.7c-2.2,0-4-1.8-4-4s1.8-4,4-4H79c2.2,0,4,1.8,4,4S81.3,406.9,79,406.9z"/>
<path class="st0" d="M130.3,490.9H89c-2.2,0-4-1.8-4-4s1.8-4,4-4h41.2c2.2,0,4,1.8,4,4S132.5,490.9,130.3,490.9z"/>
<path class="st0" d="M73,490.9H11.7c-2.2,0-4-1.8-4-4s1.8-4,4-4H73c2.2,0,4,1.8,4,4S75.3,490.9,73,490.9z"/>
<path class="st0" d="M130.3,574.9H89c-2.2,0-4-1.8-4-4c0-2.2,1.8-4,4-4h41.2c2.2,0,4,1.8,4,4C134.3,573.1,132.5,574.9,130.3,574.9z"
	/>
<path class="st0" d="M73,574.9H11.7c-2.2,0-4-1.8-4-4c0-2.2,1.8-4,4-4H73c2.2,0,4,1.8,4,4C77,573.1,75.3,574.9,73,574.9z"/>
<g>
	<path class="st0" d="M48.7,366.9c1.4,0,2.7-0.5,3.7-1.5c1-1,1.5-2.4,1.5-3.8c0-0.9-0.2-1.7-0.7-2.4c-0.5-0.8-1.2-1.3-2.1-1.7
		L19.7,345l31.4-12.6c1.7-0.6,2.9-2.3,2.8-4.1c0.1-1.4-0.5-2.7-1.4-3.7c-1-1-2.3-1.5-3.6-1.4c-1,0-1.9,0.2-2.8,0.6l-33.9,13.8
		c-1.5,0.6-2.8,1.6-3.7,3c-0.9,1.3-1.4,2.9-1.3,4.5c0,1.6,0.4,3.2,1.3,4.6c0.9,1.3,2.2,2.4,3.7,3L46,366.4
		C46.9,366.7,47.8,366.9,48.7,366.9L48.7,366.9z"/>
	<path class="st0" d="M64.1,379.7c1.2,0,2.3-0.3,3.3-1c1-0.7,1.8-1.8,2.1-3l22.1-69.1c0.2-0.7,0.3-1.3,0.3-2c0-1.5-0.6-2.9-1.7-3.8
		c-1.1-1-2.6-1.5-4-1.5c-2.5,0-4.7,1.6-5.4,4l-22,69.1c-0.2,0.7-0.3,1.3-0.3,2c0,1.5,0.6,2.9,1.7,3.8
		C61.2,379.2,62.6,379.7,64.1,379.7L64.1,379.7z"/>
	<path class="st0" d="M97.1,359.2c-0.5,0.7-0.7,1.6-0.7,2.4c0,1.4,0.5,2.8,1.5,3.8c1,1,2.3,1.5,3.7,1.5c0.9,0,1.8-0.2,2.7-0.6
		l33.9-13.8c1.5-0.6,2.8-1.7,3.7-3c0.9-1.3,1.4-2.9,1.3-4.6c0-1.6-0.4-3.2-1.3-4.5c-0.9-1.4-2.2-2.4-3.7-3l-33.9-13.8
		c-0.9-0.4-1.8-0.6-2.8-0.6c-1.4,0-2.7,0.5-3.6,1.4c-1,1-1.5,2.4-1.4,3.7c-0.1,1.8,1.1,3.5,2.8,4.1l31.4,12.6l-31.4,12.6
		C98.4,357.9,97.6,358.4,97.1,359.2L97.1,359.2z"/>
	<path class="st0" d="M436.3,332.8c-2.2,0-4,1.8-4,4v34.1c0,2.2,1.8,4,4,4s4-1.8,4-4v-34.1C440.3,334.6,438.6,332.8,436.3,332.8z"/>
	<path class="st0" d="M420.3,201.5H211v-23.6c0-2.2-1.8-4-4-4s-4,1.8-4,4v23.6H-6.3c-11,0-20,9-20,20v382.8c0,11,9,20,20,20H203
		v23.6c0,2.2,1.8,4,4,4s4-1.8,4-4v-23.6h209.3c11,0,20-9,20-20V387.6c0-2.2-1.8-4-4-4s-4,1.8-4,4v216.7c0,6.6-5.4,12-12,12H211
		V273.5h221.3v45.5c0,2.2,1.8,4,4,4s4-1.8,4-4v-97.6C440.3,210.5,431.4,201.5,420.3,201.5L420.3,201.5z M-18.3,221.5
		c0-6.6,5.4-12,12-12H203v56H-18.3V221.5z M-6.3,616.3c-6.6,0-12-5.4-12-12V273.5H203v153.3h-38c-2.2,0-4,1.8-4,4s1.8,4,4,4h38v20
		H39.7c-2.2,0-4,1.8-4,4s1.8,4,4,4H203v48h-78c-2.2,0-4,1.8-4,4c0,2.2,1.8,4,4,4h78v20h-53.6c-2.2,0-4,1.8-4,4c0,2.2,1.8,4,4,4H203
		v69.4L-6.3,616.3z M211,265.5v-56h209.3c6.6,0,12,5.4,12,12v44H211z"/>
	<path class="st0" d="M140.4,426.9H39.7c-2.2,0-4,1.8-4,4s1.8,4,4,4h100.7c2.2,0,4-1.8,4-4S142.6,426.9,140.4,426.9z"/>
	<path class="st0" d="M39.7,518.9h60.7c2.2,0,4-1.8,4-4c0-2.2-1.8-4-4-4H39.7c-2.2,0-4,1.8-4,4C35.7,517.1,37.5,518.9,39.7,518.9z"
		/>
	<path class="st0" d="M129,538.9H39.7c-2.2,0-4,1.8-4,4c0,2.2,1.8,4,4,4H129c2.2,0,4-1.8,4-4C133,540.7,131.3,538.9,129,538.9z"/>
	<path class="st0" d="M406.9,314.4c0-6.6-5.4-12-12-12H243.1c-6.6,0-12,5.4-12,12v62.4c0,6.6,5.4,12,12,12h151.8c6.6,0,12-5.4,12-12
		L406.9,314.4z M398.9,376.8c0,2.2-1.8,4-4,4H243.1c-2.2,0-4-1.8-4-4v-62.4c0-2.2,1.8-4,4-4h151.8c2.2,0,4,1.8,4,4L398.9,376.8z"/>
	<path class="st0" d="M406.9,513.7v-99.3c0-6.6-5.4-12-12-12H243.1c-6.6,0-12,5.4-12,12v99.3c0,6.6,5.4,12,12,12h151.8
		C401.5,525.7,406.9,520.4,406.9,513.7L406.9,513.7z M243.1,410.5h151.8c2.2,0,4,1.8,4,4v61.3l-21.6-15.5c-1.5-1.1-3.5-1-4.9,0.1
		l-22.3,18L294,437c-1.4-1.1-3.4-1-4.8,0l-50.1,38.4v-61C239.1,412.3,240.9,410.5,243.1,410.5L243.1,410.5z M394.9,517.7H243.1
		c-2.2,0-4-1.8-4-4v-28.2l52.6-40.3l56.2,41.5c1.5,1.1,3.5,1,4.9-0.1l22.3-18.1l23.8,17v28.1C398.9,515.9,397.1,517.7,394.9,517.7
		L394.9,517.7z"/>
	<path class="st0" d="M348,455.2c9.9,0,18-8.1,18-18s-8.1-18-18-18s-18,8.1-18,18S338.1,455.2,348,455.2z M348,427.2
		c5.5,0,10,4.5,10,10s-4.5,10-10,10s-10-4.5-10-10S342.5,427.2,348,427.2z"/>
	<path class="st0" d="M396.2,545.7H241.8c-2.2,0-4,1.8-4,4c0,2.2,1.8,4,4,4h154.3c2.2,0,4-1.8,4-4
		C400.2,547.5,398.4,545.7,396.2,545.7z"/>
	<path class="st0" d="M396.2,579.4H241.8c-2.2,0-4,1.8-4,4c0,2.2,1.8,4,4,4h154.3c2.2,0,4-1.8,4-4
		C400.2,581.2,398.4,579.4,396.2,579.4z"/>
</g>
</svg>
