<?xml version="1.0" encoding="utf-8"?>
<!-- Generator: Adobe Illustrator 19.0.0, SVG Export Plug-In . SVG Version: 6.00 Build 0)  -->
<svg version="1.1" xmlns="http://www.w3.org/2000/svg" xmlns:xlink="http://www.w3.org/1999/xlink" x="0px" y="0px"
	 viewBox="0 0 269.2 246.6" style="enable-background:new 0 0 269.2 246.6;" xml:space="preserve">
<style type="text/css">
	.st0{fill:#8F9ED1;}
	.st1{fill:#F2F2F2;}
</style>
<g id="Capa_4">
</g>
<g id="Capa_2">
</g>
<g id="Capa_5">
	<path id="XMLID_11_" class="st0" d="M10,134.6C10,65.9,65.9,10,134.6,10s124.6,55.9,124.6,124.6c0,41.1-20,77.6-50.8,100.3l5,8.7
		c33.7-24.5,55.7-64.2,55.7-109C269.2,60.4,208.8,0,134.6,0S0,60.4,0,134.6c0,46.6,23.8,87.8,60,112l5-8.7
		C31.8,215.5,10,177.5,10,134.6z"/>
	<path id="XMLID_12_" class="st0" d="M87.6,199c-19.8-14.5-32.7-38-32.7-64.4c0-44,35.8-79.8,79.8-79.8s79.8,35.8,79.8,79.8
		c0,24.5-11.1,46.5-28.6,61.2l11.3,19.6l1.3,2.3c24.9-19.2,41-49.3,41-83c0-57.8-47-104.8-104.8-104.8S29.8,76.8,29.8,134.6
		c0,35.6,17.9,67.1,45.1,86.1l3.2-5.5L87.6,199z"/>
</g>
<g id="Capa_3">
	<g id="XMLID_51_">
		<path id="XMLID_57_" class="st0" d="M226.9,136.3c0,5.6-0.5,11-1.4,16.3c-7.7,43.2-45.4,75.9-90.8,75.9c-34.2,0-64-18.6-80-46.2
			c-3.9-6.7-6.9-14-9-21.7c-2.1-7.8-3.3-15.9-3.3-24.4c0-51,41.3-92.3,92.3-92.3c42.1,0,77.5,28.1,88.6,66.6
			C225.6,118.8,226.9,127.4,226.9,136.3z"/>
		<g id="XMLID_60_">
			<path id="XMLID_65_" class="st1" d="M89.3,108.3h-34l-9.7,52.4c2.1,7.7,5.2,14.9,9,21.7h3.2l3.8-20.3h18.7
				c22.7,0,28.8-20.4,30.3-30.4C112,121.6,104.7,108.3,89.3,108.3z M94.2,133.3c-0.8,5.7-5,17.3-17.9,17.3H63.7l5.6-30.5h12.8
				C94.6,120.1,95,127.6,94.2,133.3z"/>
			<path id="XMLID_62_" class="st1" d="M223.2,110.7c-2.9-1.5-6.3-2.4-10.3-2.4h-34l-13.7,74.1h16.2l3.8-20.3h18.7
				c10.1,0,16.9-4,21.5-9.4c0.9-5.3,1.4-10.8,1.4-16.3C226.9,127.4,225.6,118.8,223.2,110.7z M217.9,133.3
				c-0.8,5.7-5,17.3-17.9,17.3h-12.6l5.6-30.5h12.8C218.3,120.1,218.7,127.6,217.9,133.3z"/>
			<path id="XMLID_52_" class="st1" d="M153.8,108.5c-6.6,0-15.4,0-19.7,0l3.7-20h-16.1L108,162.6h16.1L132,120c2.9,0,6.8,0,10.3,0
				c6.8,0,11.5,1.5,10.5,7.8c-1,6.4-6.6,34.5-6.6,34.5h16.4c0,0,6.4-31.3,7.3-40.1C170.9,113.4,162.8,108.5,153.8,108.5z"/>
		</g>
	</g>
</g>
</svg>
