<?xml version="1.0" encoding="utf-8"?>
<!-- Generator: Adobe Illustrator 19.0.0, SVG Export Plug-In . SVG Version: 6.00 Build 0)  -->
<svg version="1.1" xmlns="http://www.w3.org/2000/svg" xmlns:xlink="http://www.w3.org/1999/xlink" x="0px" y="0px"
	 viewBox="0 0 269.2 246.6" style="enable-background:new 0 0 269.2 246.6;" xml:space="preserve">
<style type="text/css">
	.st0{fill:#5181A2;}
	.st1{fill:#F2F2F2;}
	.st2{fill:#FFA600;}
</style>
<g id="Capa_4">
</g>
<g id="Capa_2">
</g>
<g id="Capa_5">
	<path id="XMLID_11_" class="st0" d="M10,134.6C10,65.9,65.9,10,134.6,10s124.6,55.9,124.6,124.6c0,41.1-20,77.6-50.8,100.3l5,8.7
		c33.7-24.5,55.7-64.2,55.7-109C269.2,60.4,208.8,0,134.6,0S0,60.4,0,134.6c0,46.6,23.8,87.8,60,112l5-8.7
		C31.8,215.5,10,177.5,10,134.6z"/>
	<path id="XMLID_12_" class="st1" d="M87.6,199c-19.8-14.5-32.7-38-32.7-64.4c0-44,35.8-79.8,79.8-79.8s79.8,35.8,79.8,79.8
		c0,24.5-11.1,46.5-28.6,61.2l11.3,19.6l1.3,2.3c24.9-19.2,41-49.3,41-83c0-57.8-47-104.8-104.8-104.8S29.8,76.8,29.8,134.6
		c0,35.6,17.9,67.1,45.1,86.1l3.2-5.5L87.6,199z"/>
</g>
<g id="Capa_3">
	<g id="XMLID_29_">
		<path id="XMLID_59_" class="st1" d="M226.9,136.3c0,13.3-2.8,26-7.9,37.4c-0.8,1.9-1.7,3.7-2.7,5.5
			c-15.4,29.3-46.2,49.4-81.7,49.4c-37.4,0-69.5-22.2-84-54.2c-2.5-5.6-4.5-11.4-5.9-17.5c-1.5-6.6-2.3-13.5-2.3-20.6
			c0-51,41.3-92.3,92.3-92.3c41.4,0,76.5,27.3,88.1,65c0.4,1.2,0.7,2.4,1,3.6v0c0.6,2.3,1.1,4.6,1.6,6.9c0.2,1.1,0.4,2.2,0.5,3.3
			c0.1,0.7,0.2,1.5,0.3,2.2c0.2,1.3,0.3,2.7,0.4,4C226.8,131.5,226.9,133.9,226.9,136.3z"/>
		<g id="XMLID_74_">
			<path id="XMLID_58_" class="st0" d="M175,72c0,0,2.7,2.8,3.1,4.8c0,0,1.9-1.5,0.6-3.7C177.4,70.8,175,72,175,72z"/>
			<path id="XMLID_40_" class="st0" d="M223.8,112.6c-2.4-1.2-4.6-1.9-6.3-2.3c-2.3-0.6-4.2-2.3-5-4.5c-1-2.9-3-7.5-6.5-14.6
				c-7-13.9-14.8-18.2-19.9-21.8c-3.4-2.4-7.8-2.8-10.4-2.9c-1.3,0-2.6-0.5-3.6-1.4c-2.7-2.3-8-4.9-9.6-3.9c-2.1,1.2,0,4.1,2.9,7.6
				c2.9,3.6,3.5,7.6,5.6,12.9c1,2.5,2.1,4,3.1,4.8c1,0.9,1.3,2.4,0.8,3.6c-1.9,4.6-2.6,10.4-1.5,15.7c1.3,6.3,4.3,6.3,4.3,6.3
				c-0.3-8.5,4.1-12.1,4.1-12.1c4,12.4,13.3,21.6,13.3,21.6c-7.5-2.7-13.1-14.9-13.1-14.9s-0.6,0.6-1.1,4.7c-0.5,4-5.4,6.5-9-2.4
				c-3.6-8.9,1.1-20,1.1-20c-2.1-1.1-6.3-10.9-6.3-12.5c0-1.5-1.7-4.9-3.7-7c-2.1-2.1-6.1-8-1.4-10.8c4.7-2.8,14.1,4.7,14.1,4.7
				c14.8-0.5,30.1,17.5,32.5,23.9c2.4,6.4,9.3,19.3,9.3,19.3c2,0.6,3.8,1.4,5.5,2.2C223.1,110.2,223.5,111.4,223.8,112.6z"/>
			<path id="XMLID_39_" class="st0" d="M226.6,129.1c-0.1,0-0.1-0.1-0.2-0.1c-4.7-2.3-6.6-7.1-6.6-7.1c1.2-1.2,3.4-1.9,5.6-2.3
				c0.2,1.1,0.4,2.2,0.5,3.3c-0.8,0.2-1.4,0.3-1.4,0.3c0,0.5,0.7,1.2,1.6,2C226.3,126.4,226.5,127.8,226.6,129.1z"/>
		</g>
		<g id="XMLID_71_">
			<path id="XMLID_35_" class="st2" d="M90.4,179.1h-7.2c0,0,0-16.5-2.4-36.1l-11.3,36.1h-5.8l-11.5-35.9c0,0-1.3,10.6-1.5,31.3
				c-2.5-5.6-4.5-11.4-5.9-17.5c0.5-7.7,1.3-16,2.3-22.8h9.4L67,167.4L78.4,134H87C87,134,90.4,163.4,90.4,179.1z"/>
			<path id="XMLID_34_" class="st2" d="M94.4,146.2l7.4-0.1c0,0,8.4,25.1,7.6,28.2c0,0,5.4-15,6.8-28.2h7.3c0,0-3.9,26.6-15.8,40.6
				c-4.5,5.2-9.5,5.3-14,3.3v-4c0,0,6.2,2.2,9.4-2.4c2.6-3.7,0.1-10.1-2.1-16.8C100.4,165.1,94.4,146.2,94.4,146.2z"/>
		</g>
		<g id="XMLID_64_">
			<path id="XMLID_33_" class="st0" d="M128.1,175.8l1.9-3.9c0,0,13.4,6,16.8,0c3.4-6,0.1-9.2-6.6-12.7c-6.8-3.6-13.9-8-10.8-17.8
				c3.1-9.7,19.5-9.1,24.2-4.4l-1.6,3.8c0,0-12.1-5.2-15.5,1.6c-3.3,6.8,5.5,10,7.6,10.9c2.1,0.9,13.5,5.6,12.3,14
				c-1.3,8.4-6.4,13.5-18.2,12.5C133.9,178.7,131.5,178.1,128.1,175.8z"/>
			<path id="XMLID_67_" class="st0" d="M188.5,176.3c5.1-4.1,7.2-11.3,7.2-19.6c0-12.7-3.7-23.1-18.1-23.1
				c-12.5,0-18.1,10.3-18.1,23.1c0,12.7,4.1,23.1,18.1,23.1c2,0,3.9-0.3,5.5-0.7l10.8,6.3l2.6-5.2L188.5,176.3z M177.6,174.3
				c-8.1,0-10.5-7.9-10.5-17.5c0-9.7,2.3-17.5,10.5-17.5c8.4,0,10.5,7.8,10.5,17.5C188.1,166.4,185.9,174.3,177.6,174.3z"/>
			<path id="XMLID_30_" class="st0" d="M219,173.7c-0.8,1.9-1.7,3.7-2.7,5.5h-14.2v-44.9h7.1v39.4L219,173.7L219,173.7z"/>
		</g>
	</g>
</g>
</svg>
