<?xml version="1.0" encoding="utf-8"?>
<!-- Generator: Adobe Illustrator 19.0.0, SVG Export Plug-In . SVG Version: 6.00 Build 0)  -->
<svg version="1.1" id="Capa_1" xmlns="http://www.w3.org/2000/svg" xmlns:xlink="http://www.w3.org/1999/xlink" x="0px" y="0px"
	 viewBox="-114 127.4 269.2 246.6" style="enable-background:new -114 127.4 269.2 246.6;" xml:space="preserve">
<style type="text/css">
	.st0{fill:#8F9ED1;}
</style>
<g id="Capa_4">
</g>
<g id="Capa_2">
</g>
<path id="XMLID_11_" class="st0" d="M-104,262c0-68.7,55.9-124.6,124.6-124.6S145.2,193.3,145.2,262c0,41.1-20,77.6-50.8,100.3
	l5,8.7c33.7-24.5,55.7-64.2,55.7-109c0.1-74.2-60.3-134.6-134.5-134.6S-114,187.8-114,262c0,46.6,23.8,87.8,60,112l5-8.7
	C-82.2,342.9-104,304.9-104,262z"/>
<g>
	<path class="st0" d="M92.7,234.9H92H62.1h-0.7l-12.3,66.7h12.4h2.2h0.7l3.4-18.3h16.1h0.7c20.4,0,25.9-18.4,27.3-27.3
		C113.1,246.8,106.5,234.9,92.7,234.9z M96.5,257.4c-0.7,5.1-4.5,15.6-16.1,15.6H69.7l5-27.4h10.9C96.8,245.5,97.2,252.2,96.5,257.4
		z"/>
	<path class="st0" d="M-9.8,237.1C-9.8,237.1-9.8,237-9.8,237.1c-2.6-1.4-5.7-2.2-9.3-2.2h-0.1h-30.5h-0.1l-8.7,47.1
		c0,0.1,0,0.1,0.1,0.2l-3.6,19.3h11.6h2.9h0.1l3.4-18.3h16.7c0,0,0,0,0,0h0.1c9.1,0,15.2-3.6,19.3-8.5c0,0,0-0.1,0-0.1
		c5.1-6,7.1-13.8,7.8-18.7C0.9,249.2-2.4,240.9-9.8,237.1z M-25.7,245.5c11.2,0,11.6,6.7,10.9,11.9c-0.7,5.1-4.5,15.6-16.1,15.6H-42
		l5-27.4H-25.7z"/>
	<path id="XMLID_2_" class="st0" d="M38.8,235.1c-5.9,0-13.9,0-17.7,0l3.3-18H9.9l-12.3,66.7h14.5l7.1-38.3c2.6,0,6.1,0,9.3,0
		c6.1,0,10.3,1.3,9.4,7c-0.9,5.8-5.9,31-5.9,31h14.8c0,0,5.8-28.2,6.6-36.1C54.2,239.5,46.9,235.1,38.8,235.1z"/>
</g>
</svg>
