<?xml version="1.0" encoding="utf-8"?>
<!-- Generator: Adobe Illustrator 19.0.0, SVG Export Plug-In . SVG Version: 6.00 Build 0)  -->
<svg version="1.1" id="Capa_1" xmlns="http://www.w3.org/2000/svg" xmlns:xlink="http://www.w3.org/1999/xlink" x="0px" y="0px"
	 viewBox="-114 127.4 269.2 246.6" style="enable-background:new -114 127.4 269.2 246.6;" xml:space="preserve">
<style type="text/css">
	.st0{fill:#34495E;}
	.st1{opacity:0.44;fill:#FFFFFF;}
	.st2{fill:#41B883;}
</style>
<g id="Capa_4">
</g>
<g id="Capa_2">
</g>
<path id="XMLID_11_" class="st0" d="M-104,262c0-68.7,55.9-124.6,124.6-124.6S145.2,193.3,145.2,262c0,41.1-20,77.6-50.8,100.3
	l5,8.7c33.7-24.5,55.7-64.2,55.7-109c0.1-74.2-60.3-134.6-134.5-134.6S-114,187.8-114,262c0,46.6,23.8,87.8,60,112l5-8.7
	C-82.2,342.9-104,304.9-104,262z"/>
<polygon class="st1" points="224.3,182.9 224.5,183.3 224.5,182.9 "/>
<g>
	<path class="st2" d="M40.1,211.7l-19.5,33.8L1,211.7h-65l84.6,146.4l84.6-146.4H40.1z"/>
	<path class="st0" d="M40.1,211.7l-19.5,33.8L1,211.7h-31.2l50.7,87.9l50.7-87.9H40.1z"/>
</g>
</svg>
