<?xml version="1.0" encoding="utf-8"?>
<!-- Generator: Adobe Illustrator 19.0.0, SVG Export Plug-In . SVG Version: 6.00 Build 0)  -->
<svg version="1.1" id="Capa_1" xmlns="http://www.w3.org/2000/svg" xmlns:xlink="http://www.w3.org/1999/xlink" x="0px" y="0px"
	 viewBox="-114 127.4 269.2 246.6" style="enable-background:new -114 127.4 269.2 246.6;" xml:space="preserve">
<style type="text/css">
	.st0{fill:#E4BA42;}
	.st1{fill:#F9CE64;}
	.st2{fill:#FFFFFF;}
</style>
<g id="Capa_4">
</g>
<g id="Capa_2">
</g>
<path id="XMLID_11_" class="st0" d="M-104,262c0-68.7,55.9-124.6,124.6-124.6S145.2,193.3,145.2,262c0,41.1-20,77.6-50.8,100.3
	l5,8.7c33.7-24.5,55.7-64.2,55.7-109c0.1-74.2-60.3-134.6-134.5-134.6S-114,187.8-114,262c0,46.6,23.8,87.8,60,112l5-8.7
	C-82.2,342.9-104,304.9-104,262z"/>
<path id="XMLID_57_" class="st0" d="M90.6,187.7L79.2,320c-16.9,13.1-38.1,20.9-61.2,20.9s-44.3-7.8-61.2-20.9l-11.4-132.3H90.6z"/>
<polygon id="XMLID_1_" class="st1" points="18,200.1 18,338.3 65.7,324.8 76.4,200.1 "/>
<polygon class="st2" points="-4.8,210.5 -4.8,248.5 -4.8,262 -4.8,285 -35.6,281.5 -35.6,295 -4.6,298.4 8.8,299.5 8.8,286.5 
	8.8,262 8.8,248.5 8.8,210.5 "/>
<polygon class="st2" points="67.9,226.5 67.9,215.5 24.9,210.2 24.9,210.2 24.9,223.7 24.9,248.2 24.9,262.5 36.2,261.7 56.6,260.5 
	55.3,284.1 24.9,286.2 24.9,300.1 56.6,294 66.7,291.9 66.7,283 66.7,258.5 66.6,246.1 36.2,248.2 36.2,223.7 "/>
</svg>
