<svg xmlns="http://www.w3.org/2000/svg" version="1.1" width="512" height="512">
<path d="M0 0 C168.96 0 337.92 0 512 0 C512 112.86 512 225.72 512 342 C343.04 342 174.08 342 0 342 C0 229.14 0 116.28 0 0 Z " fill="#D80027" transform="translate(0,85)"/>
<path d="M0 0 C73.92 0 147.84 0 224 0 C224 45.87 224 91.74 224 139 C150.08 139 76.16 139 0 139 C0 93.13 0 47.26 0 0 Z " fill="#EEEEEF" transform="translate(288,288)"/>
<path d="M0 0 C73.92 0 147.84 0 224 0 C224 45.87 224 91.74 224 139 C150.08 139 76.16 139 0 139 C0 93.13 0 47.26 0 0 Z " fill="#EEEEEF" transform="translate(0,288)"/>
<path d="M0 0 C73.92 0 147.84 0 224 0 C224 45.87 224 91.74 224 139 C150.08 139 76.16 139 0 139 C0 93.13 0 47.26 0 0 Z " fill="#EEEEEE" transform="translate(288,85)"/>
<path d="M0 0 C73.92 0 147.84 0 224 0 C224 45.87 224 91.74 224 139 C150.08 139 76.16 139 0 139 C0 93.13 0 47.26 0 0 Z " fill="#EEEEEF" transform="translate(0,85)"/>
<path d="M0 0 C0 32.01 0 64.02 0 97 C-57.42 97 -114.84 97 -174 97 C-171.23078113 94.23078113 -169.23294754 92.89391694 -165.828125 91.1015625 C-164.78358154 90.54678223 -163.73903809 89.99200195 -162.6628418 89.42041016 C-161.536604 88.8279248 -160.41036621 88.23543945 -159.25 87.625 C-156.86387541 86.35792352 -154.48046547 85.08579855 -152.09765625 83.8125 C-151.49536697 83.49100983 -150.8930777 83.16951965 -150.27253723 82.83828735 C-144.69460393 79.85304726 -139.18378748 76.75733502 -133.6875 73.625 C-125.07782498 68.72494054 -116.42840409 63.90186794 -107.75 59.125 C-105.27862149 57.76436713 -102.80726038 56.40370266 -100.3359375 55.04296875 C-99.72390976 54.70601486 -99.11188202 54.36906097 -98.48130798 54.02189636 C-92.103923 50.50927546 -85.73843716 46.97531882 -79.375 43.4375 C-78.26930664 42.82277832 -77.16361328 42.20805664 -76.02441406 41.57470703 C-73.79713851 40.33621177 -71.56992482 39.09760525 -69.34277344 37.85888672 C-62.61638637 34.11840241 -55.88781681 30.38184532 -49.15966797 26.64453125 C-43.94862588 23.74976126 -38.73783951 20.85453508 -33.52819824 17.95724487 C-31.10201233 16.60799171 -28.67564623 15.25906276 -26.24926758 13.91015625 C-24.56379046 12.97296981 -22.87856985 12.03532209 -21.19335938 11.09765625 C-18.13071896 9.39513842 -15.06611811 7.69624601 -12 6 C-10.948125 5.41750488 -9.89625 4.83500977 -8.8125 4.23486328 C-7.31203125 3.40897705 -7.31203125 3.40897705 -5.78125 2.56640625 C-4.43643555 1.8249939 -4.43643555 1.8249939 -3.06445312 1.06860352 C-1 0 -1 0 0 0 Z " fill="#0153B4" transform="translate(200,330)"/>
<path d="M0 0 C57.42 0 114.84 0 174 0 C171.23078113 2.76921887 169.23294754 4.10608306 165.828125 5.8984375 C164.78358154 6.45321777 163.73903809 7.00799805 162.6628418 7.57958984 C161.536604 8.1720752 160.41036621 8.76456055 159.25 9.375 C156.86387541 10.64207648 154.48046547 11.91420145 152.09765625 13.1875 C151.49536697 13.50899017 150.8930777 13.83048035 150.27253723 14.16171265 C144.69460393 17.14695274 139.18378748 20.24266498 133.6875 23.375 C125.07782498 28.27505946 116.42840409 33.09813206 107.75 37.875 C105.27862149 39.23563287 102.80726038 40.59629734 100.3359375 41.95703125 C99.72390976 42.29398514 99.11188202 42.63093903 98.48130798 42.97810364 C92.103923 46.49072454 85.73843716 50.02468118 79.375 53.5625 C78.26930664 54.17722168 77.16361328 54.79194336 76.02441406 55.42529297 C73.79713851 56.66378823 71.56992482 57.90239475 69.34277344 59.14111328 C65.98156885 61.0102494 62.61980454 62.87837442 59.2578125 64.74609375 C57.58368286 65.67615234 57.58368286 65.67615234 55.87573242 66.625 C53.63646593 67.86876703 51.39704687 69.11225942 49.1574707 70.35546875 C43.95290362 73.24516642 38.7500224 76.13774902 33.5539856 79.04275513 C31.13814069 80.39313067 28.72120825 81.74155323 26.30419922 83.08984375 C24.62882865 84.0254586 22.95500653 84.96384455 21.28125 85.90234375 C20.24097656 86.48242188 19.20070313 87.0625 18.12890625 87.66015625 C16.78421265 88.41244507 16.78421265 88.41244507 15.41235352 89.17993164 C10.32927672 91.89112414 5.15272623 94.42363689 0 97 C0 64.99 0 32.98 0 0 Z " fill="#0153B4" transform="translate(312,85)"/>
<path d="M0 0 C4.51814419 1.50604806 7.90780125 2.89600603 11.98046875 5.16796875 C13.13047363 5.80613525 14.28047852 6.44430176 15.46533203 7.10180664 C16.70610247 7.79695248 17.94682383 8.49218592 19.1875 9.1875 C20.48525088 9.90989729 21.78326968 10.63181348 23.08154297 11.35327148 C25.75264712 12.8386218 28.42215923 14.3267734 31.09033203 15.81738281 C34.71174902 17.84018839 38.33753469 19.85496526 41.96484375 21.8671875 C47.53094524 24.9549548 53.09453754 28.04720328 58.65722656 31.14111328 C64.2704614 34.26258349 69.8853163 37.3811369 75.5 40.5 C77.75000768 41.74998618 80.00000768 42.99998618 82.25 44.25 C83.36375 44.86875 84.4775 45.4875 85.625 46.125 C89 48 92.375 49.875 95.75 51.75 C96.86568359 52.3697168 97.98136719 52.98943359 99.13085938 53.62792969 C101.36169741 54.86749969 103.59217145 56.10772503 105.82226562 57.34863281 C111.10084102 60.28478239 116.38293724 63.2140004 121.67810059 66.12011719 C124.18355804 67.49570002 126.68694889 68.87501958 129.19018555 70.25463867 C130.96137211 71.22875544 132.73553864 72.19744764 134.50976562 73.16601562 C135.57904297 73.75576172 136.64832031 74.34550781 137.75 74.953125 C139.16539062 75.72897949 139.16539062 75.72897949 140.609375 76.52050781 C143 78 143 78 146 81 C97.82 81 49.64 81 0 81 C0 54.27 0 27.54 0 0 Z " fill="#0253B4" transform="translate(312,346)"/>
<path d="M0 0 C48.18 0 96.36 0 146 0 C146 26.73 146 53.46 146 81 C141.6114588 79.53715293 138.38327323 78.26157219 134.45703125 76.05078125 C133.39742187 75.4578125 132.3378125 74.86484375 131.24609375 74.25390625 C130.11300781 73.61324219 128.97992188 72.97257812 127.8125 72.3125 C126.60968097 71.63747533 125.40654998 70.96300629 124.203125 70.2890625 C121.7053307 68.88967866 119.20889044 67.487923 116.71337891 66.08447266 C110.98806212 62.86723022 105.24301204 59.68550789 99.5 56.5 C97.24990773 55.25016609 94.99990801 54.00016557 92.75 52.75 C91.079375 51.821875 91.079375 51.821875 89.375 50.875 C77 44 64.625 37.125 52.25 30.25 C50.57671631 29.3204248 50.57671631 29.3204248 48.86962891 28.37207031 C46.63747103 27.13194666 44.40537388 25.89171371 42.17333984 24.65136719 C36.90784929 21.72549548 31.64175149 18.80073335 26.37347412 15.87988281 C23.88863423 14.50214347 21.40414271 13.1237766 18.91967773 11.74536133 C17.16879636 10.77429027 15.41741235 9.80412565 13.66601562 8.83398438 C12.60318359 8.24423828 11.54035156 7.65449219 10.4453125 7.046875 C9.51219238 6.52963867 8.57907227 6.01240234 7.61767578 5.47949219 C2.48187247 2.5767718 2.48187247 2.5767718 0 1 C0 0.67 0 0.34 0 0 Z " fill="#0253B4" transform="translate(54,85)"/>
<path d="M0 0 C0.65194336 0.35698975 1.30388672 0.71397949 1.97558594 1.08178711 C6.95749719 3.80508497 11.94671295 6.51338616 16.953125 9.19140625 C28.41368103 15.32364208 39.81400485 21.53936812 51.11132812 27.9675293 C58.79048684 32.33193853 66.51218784 36.61586359 74.25 40.875 C76.72137851 42.23563287 79.19273962 43.59629734 81.6640625 44.95703125 C82.27609024 45.29398514 82.88811798 45.63093903 83.51869202 45.97810364 C93.24762075 51.33673237 102.95053395 56.74235141 112.65722656 62.14111328 C118.2704614 65.26258349 123.8853163 68.3811369 129.5 71.5 C131.75000768 72.74998618 134.00000768 73.99998618 136.25 75.25 C137.36375 75.86875 138.4775 76.4875 139.625 77.125 C143 79 146.375 80.875 149.75 82.75 C150.86568359 83.3697168 151.98136719 83.98943359 153.13085938 84.62792969 C155.36169741 85.86749969 157.59217145 87.10772503 159.82226562 88.34863281 C165.10084102 91.28478239 170.38293724 94.2140004 175.67810059 97.12011719 C178.18355804 98.49570002 180.68694889 99.87501958 183.19018555 101.25463867 C184.96137211 102.22875544 186.73553864 103.19744764 188.50976562 104.16601562 C189.57904297 104.75576172 190.64832031 105.34550781 191.75 105.953125 C193.16539062 106.72897949 193.16539062 106.72897949 194.609375 107.52050781 C196.77351904 108.85983715 198.25448239 110.18088477 200 112 C139.60026529 115.07557017 139.60026529 115.07557017 118.89160156 99.11669922 C113.75158247 95.35412192 108.10592729 92.50104452 102.5 89.5 C100.24781801 88.25393569 97.99780587 87.00394129 95.75 85.75 C94.63625 85.13125 93.5225 84.5125 92.375 83.875 C80 77 67.625 70.125 55.25 63.25 C54.13471924 62.63044434 53.01943848 62.01088867 51.87036133 61.37255859 C49.63566979 60.13097336 47.4011303 58.88911441 45.16674805 57.64697266 C39.93092307 54.73669378 34.69368296 51.8290659 29.45083618 48.93145752 C26.9947703 47.57381704 24.53959001 46.21457944 22.08447266 44.85522461 C20.36706852 43.90518636 18.64839822 42.9574381 16.9296875 42.00976562 C14.86041153 40.86368561 12.80115524 39.69924941 10.75439453 38.51342773 C8.09460799 36.97013737 8.09460799 36.97013737 5.47607422 36.03540039 C2.92314904 34.94527038 1.64622226 34.25306155 0 32 C-0.98863651 26.53114832 -0.7528903 21.21708951 -0.5 15.6875 C-0.45984872 14.16871293 -0.42335074 12.64982459 -0.390625 11.13085938 C-0.30268966 7.41846189 -0.16478459 3.70987145 0 0 Z " fill="#D7032A" transform="translate(0,85)"/>
<path d="M0 0 C60.39973471 -3.07557017 60.39973471 -3.07557017 81.10839844 12.88330078 C86.24841753 16.64587808 91.89407271 19.49895548 97.5 22.5 C99.75218199 23.74606431 102.00219413 24.99605871 104.25 26.25 C105.36375 26.86875 106.4775 27.4875 107.625 28.125 C120 35 132.375 41.875 144.75 48.75 C145.86528076 49.36955566 146.98056152 49.98911133 148.12963867 50.62744141 C150.36433021 51.86902664 152.5988697 53.11088559 154.83325195 54.35302734 C160.06907693 57.26330622 165.30631704 60.1709341 170.54916382 63.06854248 C173.0052297 64.42618296 175.46040999 65.78542056 177.91552734 67.14477539 C179.63293148 68.09481364 181.35160178 69.0425619 183.0703125 69.99023438 C185.13958847 71.13631439 187.19884476 72.30075059 189.24560547 73.48657227 C191.90539201 75.02986263 191.90539201 75.02986263 194.52392578 75.96459961 C197.07685096 77.05472962 198.35377774 77.74693845 200 80 C200.98863651 85.46885168 200.7528903 90.78291049 200.5 96.3125 C200.45984872 97.83128707 200.42335074 99.35017541 200.390625 100.86914062 C200.30268966 104.58153811 200.16478459 108.29012855 200 112 C187.07656436 105.19907031 174.32395746 98.09677815 161.56835938 90.98779297 C155.88216939 87.81932542 150.19074334 84.66027938 144.5 81.5 C142.24997695 80.25004149 139.99997699 79.00004142 137.75 77.75 C136.63625 77.13125 135.5225 76.5125 134.375 75.875 C113 64 91.625 52.125 70.25 40.25 C69.13592773 39.63108887 68.02185547 39.01217773 66.87402344 38.37451172 C64.62721721 37.12624991 62.38047227 35.87787776 60.13378906 34.62939453 C54.46042553 31.47688621 48.78596278 28.32638684 43.109375 25.1796875 C28.69999768 17.18900495 14.3288843 9.13418312 0 1 C0 0.67 0 0.34 0 0 Z " fill="#D70329" transform="translate(312,315)"/>
<path d="M0 0 C1.24819519 0.00990463 2.49639038 0.01980927 3.78240967 0.03001404 C7.72598302 0.06885381 11.66665874 0.15662906 15.609375 0.24609375 C18.30071044 0.28524664 20.99212348 0.31366005 23.68359375 0.34179688 C30.24315769 0.41851647 36.80105928 0.53530099 43.359375 0.68359375 C40.8387929 3.31401121 38.42507121 4.87772065 35.1875 6.58203125 C34.14295654 7.13681152 33.09841309 7.6915918 32.0222168 8.26318359 C30.895979 8.85566895 29.76974121 9.4481543 28.609375 10.05859375 C26.22325041 11.32567023 23.83984047 12.5977952 21.45703125 13.87109375 C20.85474197 14.19258392 20.2524527 14.5140741 19.63191223 14.8453064 C14.05397893 17.83054649 8.54316248 20.92625873 3.046875 24.05859375 C-5.56280002 28.95865321 -14.21222091 33.78172581 -22.890625 38.55859375 C-25.36200351 39.91922662 -27.83336462 41.27989109 -30.3046875 42.640625 C-30.91671524 42.97757889 -31.52874298 43.31453278 -32.15931702 43.66169739 C-38.536702 47.17431829 -44.90218784 50.70827493 -51.265625 54.24609375 C-52.37131836 54.86081543 -53.47701172 55.47553711 -54.61621094 56.10888672 C-56.84348649 57.34738198 -59.07070018 58.5859885 -61.29785156 59.82470703 C-66.9110864 62.94617724 -72.5259413 66.06473065 -78.140625 69.18359375 C-80.39063268 70.43357993 -82.64063268 71.68357993 -84.890625 72.93359375 C-139.8046875 103.44140625 -139.8046875 103.44140625 -142.80957031 105.10644531 C-144.65764015 106.13598405 -146.5010004 107.17403575 -148.33886719 108.22167969 C-149.55171387 108.91052246 -149.55171387 108.91052246 -150.7890625 109.61328125 C-151.48950684 110.01530762 -152.18995117 110.41733398 -152.91162109 110.83154297 C-154.640625 111.68359375 -154.640625 111.68359375 -156.640625 111.68359375 C-156.640625 101.45359375 -156.640625 91.22359375 -156.640625 80.68359375 C-141.90528549 72.20282281 -127.06882992 63.92429759 -112.17286682 55.73094177 C-105.77746233 52.21170788 -99.39544639 48.66849043 -93.015625 45.12109375 C-91.91009277 44.50645264 -90.80456055 43.89181152 -89.66552734 43.25854492 C-87.43808517 42.01997523 -85.2107087 40.78128736 -82.98339844 39.54248047 C-78.49512865 37.04659337 -74.0058009 34.55261307 -69.51635742 32.05883789 C-67.27681423 30.81475521 -65.03739243 29.57045398 -62.7980957 28.32592773 C-57.59863659 25.43641277 -52.39835239 22.54842056 -47.1946106 19.66662598 C-44.77764064 18.32798655 -42.36121432 16.98836743 -39.94482422 15.64868164 C-38.27103193 14.72122146 -36.59646953 13.79515153 -34.921875 12.86914062 C-33.88160156 12.29228516 -32.84132813 11.71542969 -31.76953125 11.12109375 C-30.87306885 10.62480469 -29.97660645 10.12851562 -29.05297852 9.6171875 C-25.73005399 7.79523741 -25.73005399 7.79523741 -23.06643677 5.93467712 C-15.18933073 0.81032582 -9.29887548 -0.28354086 0 0 Z " fill="#D80329" transform="translate(156.640625,314.31640625)"/>
<path d="M0 0 C0 10.23 0 20.46 0 31 C-14.73533951 39.48077094 -29.57179508 47.75929616 -44.46775818 55.95265198 C-50.86316267 59.47188587 -57.24517861 63.01510332 -63.625 66.5625 C-64.73053223 67.17714111 -65.83606445 67.79178223 -66.97509766 68.42504883 C-69.20253983 69.66361852 -71.4299163 70.90230639 -73.65722656 72.14111328 C-78.14549635 74.63700038 -82.6348241 77.13098068 -87.12426758 79.62475586 C-89.36381077 80.86883854 -91.60323257 82.11313977 -93.8425293 83.35766602 C-99.04198841 86.24718098 -104.24227261 89.13517319 -109.4460144 92.01696777 C-111.86298436 93.3556072 -114.27941068 94.69522632 -116.69580078 96.03491211 C-118.36959307 96.96237229 -120.04415547 97.88844222 -121.71875 98.81445312 C-122.75902344 99.39130859 -123.79929687 99.96816406 -124.87109375 100.5625 C-125.76755615 101.05878906 -126.66401855 101.55507812 -127.58764648 102.06640625 C-130.91057101 103.88835634 -130.91057101 103.88835634 -133.57418823 105.74891663 C-141.45129427 110.87326793 -147.34174952 111.96713461 -156.640625 111.68359375 C-157.88882019 111.67368912 -159.13701538 111.66378448 -160.42303467 111.65357971 C-164.36660802 111.61473994 -168.30728374 111.52696469 -172.25 111.4375 C-174.94133544 111.39834711 -177.63274848 111.3699337 -180.32421875 111.34179688 C-186.88378269 111.26507728 -193.44168428 111.14829276 -200 111 C-198.62773372 108.25546743 -197.15943599 107.98342626 -194.375 106.6875 C-188.30065137 103.72527358 -182.43299235 100.47157382 -176.5625 97.125 C-167.66129936 92.05779004 -158.72339673 87.06279344 -149.75 82.125 C-147.27857613 80.7644495 -144.80723787 79.40374356 -142.3359375 78.04296875 C-141.72383926 77.70597458 -141.11174103 77.36898041 -140.48109436 77.02177429 C-134.10377478 73.50920465 -127.73836545 69.97527896 -121.375 66.4375 C-120.26930664 65.82277832 -119.16361328 65.20805664 -118.02441406 64.57470703 C-115.79713851 63.33621177 -113.56992482 62.09760525 -111.34277344 60.85888672 C-105.7295386 57.73741651 -100.1146837 54.6188631 -94.5 51.5 C-92.24999232 50.25001382 -89.99999232 49.00001382 -87.75 47.75 C-74.25 40.25 -74.25 40.25 -70.87451172 38.37475586 C-68.62610861 37.12562495 -66.37773618 35.87643881 -64.12939453 34.62719727 C-58.4802133 31.48844509 -52.8304904 28.35067557 -47.1796875 25.21484375 C-46.05361084 24.589729 -44.92753418 23.96461426 -43.76733398 23.32055664 C-41.52490744 22.07580415 -39.28223586 20.83149298 -37.03930664 19.58764648 C-31.28649926 16.39417722 -25.54413713 13.18346405 -19.81640625 9.9453125 C-18.64993891 9.28712595 -17.48343558 8.62900316 -16.31689453 7.97094727 C-14.10616936 6.72248327 -11.89742369 5.4705059 -9.69091797 4.21459961 C-8.70881348 3.6603833 -7.72670898 3.10616699 -6.71484375 2.53515625 C-5.84980225 2.044104 -4.98476074 1.55305176 -4.09350586 1.04711914 C-2 0 -2 0 0 0 Z " fill="#D80229" transform="translate(512,86)"/>
<path d="M0 0 C8.34406498 4.17203249 16.5051017 8.29843722 24.5625 12.9375 C33.41924912 17.98896244 42.31726968 22.95967368 51.25 27.875 C52.47992741 28.55227604 53.70982643 29.22960366 54.93969727 29.90698242 C56.79033221 30.92624281 58.64096809 31.94550142 60.49168396 32.96461487 C76.24245618 41.63962673 91.97486288 50.34520904 107.55664062 59.32128906 C108.35134766 59.77858398 109.14605469 60.23587891 109.96484375 60.70703125 C110.6518335 61.1038208 111.33882324 61.50061035 112.04663086 61.90942383 C114.00367059 63.00204931 115.98761445 64.01362468 118 65 C118 65.33 118 65.66 118 66 C79.06 66 40.12 66 0 66 C0 44.22 0 22.44 0 0 Z " fill="#0354B4" transform="translate(0,131)"/>
<path d="M0 0 C38.94 0 77.88 0 118 0 C118 21.78 118 43.56 118 66 C109.65593502 61.82796751 101.4948983 57.70156278 93.4375 53.0625 C84.58075494 48.01103988 75.68284195 43.04011914 66.75 38.125 C64.28116651 36.76577661 61.81245149 35.40633813 59.34375 34.046875 C58.73207474 33.71009232 58.12039948 33.37330963 57.4901886 33.02632141 C38.27550749 22.44321113 19.13123446 11.73301041 0 1 C0 0.67 0 0.34 0 0 Z " fill="#0354B4" transform="translate(394,315)"/>
<path d="M0 0 C29.7 0 59.4 0 90 0 C87.23078113 2.76921887 85.23294754 4.10608306 81.828125 5.8984375 C80.26130981 6.73060791 80.26130981 6.73060791 78.6628418 7.57958984 C76.97348511 8.46831787 76.97348511 8.46831787 75.25 9.375 C72.86387541 10.64207648 70.48046547 11.91420145 68.09765625 13.1875 C67.49536697 13.50899017 66.8930777 13.83048035 66.27253723 14.16171265 C60.6946089 17.14695007 55.18370096 20.2425189 49.6875 23.375 C39.42800103 29.21716414 29.10235602 34.93317655 18.7565918 40.62060547 C18.16371872 40.94671814 17.57084564 41.27283081 16.96000671 41.60882568 C15.2796414 42.53291985 13.59881369 43.45617304 11.91796875 44.37939453 C9.51942811 45.71151575 7.1461921 47.07452599 4.78125 48.46484375 C2 50 2 50 0 50 C0 33.5 0 17 0 0 Z " fill="#0455B5" transform="translate(0,315)"/>
<path d="M0 0 C0 16.5 0 33 0 50 C-29.7 50 -59.4 50 -90 50 C-86.39789986 47.11831989 -83.60096248 45.09400318 -79.6328125 43.00390625 C-78.59471436 42.45234863 -77.55661621 41.90079102 -76.48706055 41.33251953 C-75.37758057 40.74841309 -74.26810059 40.16430664 -73.125 39.5625 C-70.75806254 38.302697 -68.39192386 37.04155043 -66.02734375 35.77734375 C-65.43123795 35.45894531 -64.83513214 35.14054687 -64.22096252 34.8125 C-58.66094461 31.83473076 -53.16716541 28.74751001 -47.6875 25.625 C-37.37152486 19.74965821 -26.9868706 14.00519997 -16.58081055 8.29150391 C-15.98073685 7.96160461 -15.38066315 7.63170532 -14.7624054 7.29180908 C-13.13032367 6.39469042 -11.49755862 5.4988152 -9.86474609 4.60302734 C-7.96820576 3.54177936 -6.09482702 2.43794139 -4.24853516 1.29150391 C-2 0 -2 0 0 0 Z " fill="#0454B5" transform="translate(512,147)"/>
</svg>