<svg xmlns="http://www.w3.org/2000/svg" version="1.1" width="512" height="400">
<path d="M0 0 C147.84 0 295.68 0 448 0 C448 96.36 448 192.72 448 292 C300.16 292 152.32 292 0 292 C0 195.64 0 99.28 0 0 Z " fill="#FEFEFE" transform="translate(32,50)"/>
<path d="M0 0 C49.17 0 98.34 0 149 0 C149 96.36 149 192.72 149 292 C99.83 292 50.66 292 0 292 C0 195.64 0 99.28 0 0 Z " fill="#CD2B36" transform="translate(331,50)"/>
<path d="M0 0 C49.17 0 98.34 0 149 0 C149 96.36 149 192.72 149 292 C99.83 292 50.66 292 0 292 C0 195.64 0 99.28 0 0 Z " fill="#009949" transform="translate(32,50)"/>
</svg>