<?xml version="1.0" encoding="utf-8"?>
<!-- Generator: Adobe Illustrator 19.0.0, SVG Export Plug-In . SVG Version: 6.00 Build 0)  -->
<svg version="1.1" id="Capa_1" xmlns="http://www.w3.org/2000/svg" xmlns:xlink="http://www.w3.org/1999/xlink" x="0px" y="0px"
	 viewBox="-114 127.4 269.2 246.6" style="enable-background:new -114 127.4 269.2 246.6;" xml:space="preserve">
<style type="text/css">
	.st0{fill:#5181A2;}
	.st1{fill:#FFA600;}
</style>
<g id="Capa_4">
</g>
<g id="Capa_2">
</g>
<path id="XMLID_11_" class="st0" d="M-104,262c0-68.7,55.9-124.6,124.6-124.6S145.2,193.3,145.2,262c0,41.1-20,77.6-50.8,100.3
	l5,8.7c33.7-24.5,55.7-64.2,55.7-109c0.1-74.2-60.3-134.6-134.5-134.6S-114,187.8-114,262c0,46.6,23.8,87.8,60,112l5-8.7
	C-82.2,342.9-104,304.9-104,262z"/>
<path id="XMLID_34_" class="st1" d="M-19.6,273.6l7.4-0.1c0,0,8.4,25.1,7.6,28.2c0,0,5.4-15,6.8-28.2h7.3c0,0-3.9,26.6-15.8,40.6
	c-4.5,5.2-9.5,5.3-14,3.3v-4c0,0,6.2,2.2,9.4-2.4c2.6-3.7,0.1-10.1-2.1-16.8C-13.6,292.5-19.6,273.6-19.6,273.6z"/>
<path id="XMLID_33_" class="st0" d="M14.1,303.2l1.9-3.9c0,0,13.4,6,16.8,0c3.4-6,0.1-9.2-6.6-12.7c-6.8-3.6-13.9-8-10.8-17.8
	c3.1-9.7,19.5-9.1,24.2-4.4l-1.6,3.8c0,0-12.1-5.2-15.5,1.6c-3.3,6.8,5.5,10,7.6,10.9s13.5,5.6,12.3,14c-1.3,8.4-6.4,13.5-18.2,12.5
	C19.9,306.1,17.5,305.5,14.1,303.2z"/>
<path id="XMLID_67_" class="st0" d="M74.5,303.7c5.1-4.1,7.2-11.3,7.2-19.6c0-12.7-3.7-23.1-18.1-23.1c-12.5,0-18.1,10.3-18.1,23.1
	c0,12.7,4.1,23.1,18.1,23.1c2,0,3.9-0.3,5.5-0.7l10.8,6.3l2.6-5.2L74.5,303.7z M63.6,301.7c-8.1,0-10.5-7.9-10.5-17.5
	c0-9.7,2.3-17.5,10.5-17.5c8.4,0,10.5,7.8,10.5,17.5C74.1,293.8,71.9,301.7,63.6,301.7z"/>
<path class="st1" d="M-27,261.4h-8.6L-47,294.8l-10.5-33.2h-9.4c-1,6.8-1.8,15.1-2.3,22.8c0,0.1,0.1,0.3,0.1,0.4
	c-0.6,7.7-1.1,15.9-1.1,22h7.2c0,0,0-15.1,2.1-33.5l10.6,33.2h5.8l11.3-36.1c2.4,19.6,2.4,36.1,2.4,36.1h7.2
	C-23.6,290.8-27,261.4-27,261.4z"/>
<polygon class="st0" points="105,301.1 95.2,301.1 95.2,261.7 88.1,261.7 88.1,306.6 102.3,306.6 113.4,306.6 113.4,301.1 "/>
<g>
	<path class="st0" d="M61,199.4c0,0,2.7,2.8,3.1,4.8c0,0,1.9-1.5,0.6-3.7C63.4,198.2,61,199.4,61,199.4z"/>
	<path class="st0" d="M110.5,250.6c0,0,0.4-0.1,1.1-0.2c6.5-1.4,9.6-3.9,9.6-3.9c-2.6-8.3-15.8-11.8-15.8-11.8l0,0
		c-0.6-0.2-1.2-0.5-1.9-0.6c0,0-6.9-12.9-9.3-19.3c-2.4-6.4-17.7-24.4-32.5-23.9c0,0-9.4-7.5-14.1-4.7s-0.7,8.7,1.4,10.8
		c2,2.1,3.7,5.5,3.7,7c0,1.6,4.2,11.4,6.3,12.5c0,0-4.7,11.1-1.1,20c3.6,8.9,8.5,6.4,9,2.4c0.5-4.1,1.1-4.7,1.1-4.7
		s5.6,12.2,13.1,14.9c0,0-9.3-9.2-13.3-21.6c0,0-4.4,3.6-4.1,12.1c0,0-3,0-4.3-6.3c-1.1-5.3-0.4-11.1,1.5-15.7
		c0.5-1.2,0.2-2.7-0.8-3.6c-1-0.8-2.1-2.3-3.1-4.8c-2.1-5.3-2.7-9.3-5.6-12.9c-2.9-3.5-5-6.4-2.9-7.6c1.6-1,6.9,1.6,9.6,3.9
		c1,0.9,2.3,1.4,3.6,1.4c2.6,0.1,7,0.5,10.4,2.9c5.1,3.6,12.9,7.9,19.9,21.8c3.5,7.1,5.5,11.7,6.5,14.6c0.8,2.2,2.7,3.9,5,4.5
		c1.7,0.4,3.9,1.1,6.3,2.3c1.5,0.3,6.4,4.3,6.4,4.3l-6.3,3.1c-1.6,0.4-3.1,1-4,2c0,0,1.9,4.8,6.6,7.1c0.1,0,0.1,0.1,0.2,0.1
		c-0.1-1.3-0.3-2.7-0.5-3.9C111.2,251.8,110.5,251.1,110.5,250.6z"/>
</g>
</svg>
