<?xml version="1.0" encoding="utf-8"?>
<!-- Generator: Adobe Illustrator 19.0.0, SVG Export Plug-In . SVG Version: 6.00 Build 0)  -->
<svg version="1.1" id="Capa_1" xmlns="http://www.w3.org/2000/svg" xmlns:xlink="http://www.w3.org/1999/xlink" x="0px" y="0px"
	 viewBox="-114 127.4 269.2 246.6" style="enable-background:new -114 127.4 269.2 246.6;" xml:space="preserve">
<style type="text/css">
	.st0{fill:#006BC0;}
	.st1{fill:#0096DC;}
	.st2{fill:#FFFFFF;}
</style>
<g id="Capa_4">
</g>
<g id="Capa_2">
</g>
<path id="XMLID_11_" class="st0" d="M-104,262c0-68.7,55.9-124.6,124.6-124.6S145.2,193.3,145.2,262c0,41.1-20,77.6-50.8,100.3
	l5,8.7c33.7-24.5,55.7-64.2,55.7-109c0.1-74.2-60.3-134.6-134.5-134.6S-114,187.8-114,262c0,46.6,23.8,87.8,60,112l5-8.7
	C-82.2,342.9-104,304.9-104,262z"/>
<path id="XMLID_57_" class="st0" d="M90.6,188.9L79.2,321.2c-16.9,13.1-38.1,20.9-61.2,20.9s-44.3-7.8-61.2-20.9l-11.4-132.3H90.6z"
	/>
<polygon id="XMLID_56_" class="st1" points="18,201.3 18,339.5 65.7,326 76.4,201.3 "/>
<polygon id="XMLID_55_" class="st2" points="60.2,255.4 25.8,255.4 61.7,237 63.3,218.6 -27.2,218.6 -25.7,237.4 10.7,237.4 
	-24.2,254.8 -22.6,274.1 -22.6,274.1 39.6,274.1 37.6,297 18,302.3 -2.4,296.5 -2.9,282.3 -21.9,282.3 -19.5,310.4 18,321 
	55.5,310.4 "/>
</svg>
