<?xml version="1.0" encoding="utf-8"?>
<!-- Generator: Adobe Illustrator 19.0.0, SVG Export Plug-In . SVG Version: 6.00 Build 0)  -->
<svg version="1.1" id="Capa_1" xmlns="http://www.w3.org/2000/svg" xmlns:xlink="http://www.w3.org/1999/xlink" x="0px" y="0px"
	 viewBox="-114 127.4 269.2 246.6" style="enable-background:new -114 127.4 269.2 246.6;" xml:space="preserve">
<style type="text/css">
	.st0{fill:#E64C18;}
	.st1{fill:#F36518;}
	.st2{fill:#FFFFFF;}
</style>
<g id="Capa_4">
</g>
<g id="Capa_2">
</g>
<path id="XMLID_11_" class="st0" d="M-104,262c0-68.7,55.9-124.6,124.6-124.6S145.2,193.3,145.2,262c0,41.1-20,77.6-50.8,100.3
	l5,8.7c33.7-24.5,55.7-64.2,55.7-109c0.1-74.2-60.3-134.6-134.5-134.6S-114,187.8-114,262c0,46.6,23.8,87.8,60,112l5-8.7
	C-82.2,342.9-104,304.9-104,262z"/>
<path id="XMLID_39_" class="st0" d="M88.4,188.4L77.8,311.1c-15.7,12.2-35.4,19.4-56.7,19.4c-21.2,0-40.7-7.1-56.3-19.1l-10.6-123
	L88.4,188.4L88.4,188.4z"/>
<polygon id="XMLID_35_" class="st1" points="21.2,199.9 21.2,327.6 65.4,315.2 75.2,199.9 "/>
<polygon id="XMLID_34_" class="st2" points="-20.6,215.9 -16.3,267.1 41.2,267.1 39.3,288.3 21.2,293.2 2.4,287.9 1.9,274.7 
	-15.7,274.7 -13.5,300.8 21.2,310.6 55.9,300.8 60.2,249.8 -0.4,249.8 -1.9,233.2 -1.9,233.2 61.6,232.9 63.1,215.9 "/>
</svg>
