<?xml version="1.0" encoding="utf-8"?>
<!-- Generator: Adobe Illustrator 19.0.0, SVG Export Plug-In . SVG Version: 6.00 Build 0)  -->
<svg version="1.1" id="Capa_1" xmlns="http://www.w3.org/2000/svg" xmlns:xlink="http://www.w3.org/1999/xlink" x="0px" y="0px"
	 viewBox="-114 127.4 269.2 246.6" style="enable-background:new -114 127.4 269.2 246.6;" xml:space="preserve">
<style type="text/css">
	.st0{fill:#06B6D4;}
</style>
<g id="Capa_4">
</g>
<g id="Capa_2">
</g>
<path id="XMLID_11_" class="st0" d="M-104,262c0-68.7,55.9-124.6,124.6-124.6S145.2,193.3,145.2,262c0,41.1-20,77.6-50.8,100.3
	l5,8.7c33.7-24.5,55.7-64.2,55.7-109c0.1-74.2-60.3-134.6-134.5-134.6S-114,187.8-114,262c0,46.6,23.8,87.8,60,112l5-8.7
	C-82.2,342.9-104,304.9-104,262z"/>
<path class="st0" d="M16,202.2c-24.7,0-40.1,12.3-46.3,36.8c9.3-12.3,20.1-16.9,32.4-13.8c7,1.7,12.1,6.8,17.7,12.5
	c9.1,9.3,19.6,19.8,42.5,19.8c24.7,0,40.1-12.3,46.3-36.8c-9.3,12.3-20.1,16.9-32.4,13.8c-7-1.7-12.1-6.8-17.7-12.5
	C49.4,212.7,38.9,202.2,16,202.2z M-30.3,257.4c-24.7,0-40.1,12.3-46.3,36.8c9.3-12.3,20.1-16.9,32.4-13.8c7,1.7,12.1,6.8,17.7,12.5
	C-17.5,302-7,312.6,16,312.6c24.7,0,40.1-12.3,46.3-36.8c-9.3,12.3-20.1,16.9-32.4,13.8c-7-1.7-12.1-6.8-17.7-12.5
	C3.1,268-7.4,257.4-30.3,257.4z"/>
</svg>
