<svg width="134" height="63" viewBox="0 0 67.28 60" fill="none" xmlns="http://www.w3.org/2000/svg">
<path d="M31.1062 0C22.8563 8.73089e-06 14.9443 3.27726 9.11079 9.11079C3.27726 14.9443 8.73089e-06 22.8563 0 31.1062C8.92932e-06 39.356 3.27726 47.268 9.11079 53.1015C14.9443 58.9351 22.8563 62.2123 31.1062 62.2123C39.356 62.2123 47.268 58.9351 53.1015 53.1015C58.9351 47.268 62.2123 39.356 62.2123 31.1062C62.2123 22.8563 58.9351 14.9443 53.1015 9.11079C47.268 3.27726 39.356 8.53246e-06 31.1062 0ZM32.7567 7.81117C33.2452 7.80413 33.5654 7.83092 33.8696 7.88935C34.6243 8.03448 34.676 8.13062 34.3619 8.80354C34.0493 9.4734 34.0651 9.32186 34.0549 11.7417C34.0462 13.7723 34.0035 14.5438 33.8933 14.654C33.8821 14.6653 33.6597 14.7304 33.3991 14.7988C32.5372 15.0249 32.5585 14.9979 32.4557 15.9997C32.4111 16.4326 32.3776 16.7896 32.3811 16.7931C32.3847 16.7966 33.2687 16.9849 34.3456 17.2118L36.3035 17.6242L37.3653 18.2223L38.4271 18.8205L39.2057 20.1016C39.6339 20.8064 39.9906 21.3829 39.9983 21.3829C40.006 21.3829 40.6137 21.1523 41.3488 20.8704C42.0838 20.5884 42.692 20.3644 42.7002 20.3726C42.72 20.3924 43.3595 24.77 43.3445 24.7826C43.2517 24.8609 38.9498 26.1298 38.8462 26.1096C38.7743 26.0955 38.0035 25.8653 37.1334 25.598C36.2633 25.3307 35.5446 25.1182 35.5364 25.1258C35.5281 25.1336 35.4844 26.0296 35.4393 27.1173C35.3941 28.205 35.3528 29.0977 35.3474 29.1014C35.3421 29.1051 34.9868 29.3992 34.558 29.7549L33.7783 30.4017L33.1683 30.3811C32.833 30.3696 31.2504 30.3401 29.6513 30.3153L26.7439 30.2702L25.8033 29.6892C25.2859 29.3695 24.7328 29.0292 24.5741 28.9332C24.2251 28.7219 24.2216 28.8298 24.6062 27.9872C24.7826 27.6008 24.9268 27.2596 24.9268 27.2291C24.9268 27.1939 26.1879 26.7351 28.3657 25.9778C30.3614 25.2838 31.7564 24.7778 31.6898 24.7719C31.4085 24.7472 24.9076 24.5859 24.5609 24.5948C23.9048 24.612 22.4268 23.8753 21.6904 23.1641C21.608 23.0845 21.4779 19.0826 21.5555 19.012C22.5758 18.0816 23.2071 17.6277 24.3137 17.0288L25.4318 16.4236L26.9739 16.4849C28.3196 16.5385 28.5315 16.5385 28.64 16.4843C28.7082 16.4502 29.4584 16.1376 30.3068 15.7897L31.8494 15.1569L30.3869 15.0621C29.5825 15.0099 28.8943 14.9678 28.8572 14.9684C28.7609 14.9703 27.8312 13.6729 27.7899 13.4791C27.7717 13.3936 27.6553 12.6481 27.5313 11.8225L27.3059 10.3214L27.9638 9.20377C28.4756 8.33455 28.6412 8.08558 28.7091 8.08355C28.7571 8.08202 29.6236 8.01579 30.6348 7.9361C31.6116 7.85915 32.2682 7.81822 32.7567 7.81117ZM44.9837 17.1946L45.7188 17.2173C46.1231 17.23 46.6462 17.2587 46.8814 17.2812C47.3379 17.3251 47.6367 17.4057 47.7862 17.5252C47.8777 17.5984 47.9257 18.0778 48.0258 19.9212L48.0358 20.1056L46.069 20.9371C44.9873 21.3943 44.0705 21.7787 44.0314 21.7912C43.9474 21.818 42.8912 20.3302 42.9536 20.273C42.9741 20.2542 43.2794 20.1288 43.6322 19.9941C43.9848 19.8594 44.2836 19.7432 44.2961 19.7357C44.3085 19.7282 44.296 19.3695 44.2683 18.9386C44.2405 18.5076 44.2296 18.1357 44.2439 18.1122C44.2583 18.0887 44.4304 17.8725 44.6267 17.6319L44.9837 17.1946ZM45.0871 18.6038C45.0685 18.6038 45.0646 18.6953 45.0783 18.8069C45.0919 18.9187 45.1265 19.2793 45.1549 19.6086C45.1834 19.9378 45.2125 20.2146 45.2197 20.2238C45.2377 20.2463 46.8603 19.7852 46.8581 19.7582C46.8557 19.7291 45.1293 18.6038 45.0871 18.6038ZM34.501 20.9267C34.4239 20.9675 34.2022 21.3928 33.7597 22.2426C33.3386 23.0513 32.879 23.931 32.7386 24.1975L32.4831 24.682L33.3165 24.0341L34.15 23.386L34.1741 23.0974C34.1875 22.9386 34.2778 22.4074 34.3748 21.9171C34.5107 21.2295 34.5782 20.8859 34.501 20.9267ZM23.4047 31.5833C23.5346 31.5912 23.8006 31.6774 24.3894 31.8533C24.9319 32.0155 25.8279 32.2586 26.3805 32.3936C26.9331 32.5284 27.4083 32.6508 27.4367 32.6657C27.4698 32.6831 27.3577 32.8464 27.1198 33.1267L26.7515 33.5605L26.3118 34.6583L25.8723 35.7561L27.206 35.7256C27.9395 35.7088 28.542 35.6927 28.545 35.6898C28.5478 35.6869 28.5918 35.2707 28.6427 34.7651C28.7269 33.931 28.7441 33.838 28.8308 33.7605C28.8832 33.7134 29.2367 33.4485 29.6161 33.1717L30.3057 32.6686L31.0293 33.1812L31.7529 33.694L31.8288 34.6678C31.8705 35.2035 31.9076 35.6416 31.911 35.6416C31.9145 35.6416 32.4392 35.6357 33.0772 35.6284L34.237 35.6153L33.5416 34.1747C33.159 33.3825 32.8518 32.7281 32.8588 32.7203C32.866 32.7125 33.3208 32.6612 33.8696 32.606C34.8027 32.5123 34.9136 32.492 35.5811 32.2888C35.9735 32.1694 36.3208 32.0715 36.3529 32.0715C36.385 32.0715 37.2087 32.9804 38.1833 34.0911C40.3342 36.5429 40.3498 36.5593 41.8151 37.9294C44.4611 40.4035 44.8211 40.8668 45.2086 42.2942C45.4599 43.2196 45.5666 43.4821 46.4754 45.411C46.9472 46.4126 47.3786 47.4076 47.5426 47.872C47.6989 48.3149 47.747 48.2335 47.1067 48.6089C46.8778 48.7431 46.6902 48.8756 46.6898 48.9034C46.6873 49.0696 47.2447 49.3013 49.09 49.901C51.474 50.6759 51.8714 50.9665 51.3151 51.5287C50.9155 51.9325 50.6369 51.9742 48.3351 51.9735C45.9781 51.9729 45.3401 51.9047 45.0761 51.6247C44.89 51.4273 44.8283 51.5571 45.7942 50.1095C46.2662 49.4021 46.6463 48.8183 46.6386 48.812C46.6311 48.8058 45.8456 48.8746 44.8933 48.9649L43.1618 49.129L41.8364 49.0165C41.1075 48.9546 40.4918 48.8888 40.4684 48.8703C40.4448 48.852 39.6282 47.2041 38.6537 45.2085L36.8821 41.5801L34.2073 39.8799L31.5324 38.1797L30.4208 38.2053C29.8095 38.2193 29.1586 38.2424 28.9744 38.2567L28.6397 38.2827L26.4037 40.746L24.1678 43.2093L21.3839 45.8814L18.5999 48.5535L17.7623 48.6593L16.9248 48.765L15.1917 48.5183C14.2385 48.3826 13.453 48.2772 13.4463 48.2842C13.4396 48.2912 13.8466 48.8536 14.3509 49.5339C14.8551 50.2142 15.262 50.792 15.2553 50.8181C15.2484 50.8441 15.0986 51.0905 14.9222 51.3655L14.6016 51.8657L12.9128 51.8628C10.3454 51.8584 10.2946 51.8373 10.6687 50.9291C10.8475 50.4952 10.9036 50.4328 11.5873 49.9094C12.7699 49.0043 13.1933 48.6418 13.3001 48.442C13.3329 48.3807 13.2497 48.2927 12.8164 47.9306C12.5284 47.69 12.2944 47.4622 12.2965 47.4247C12.3075 47.2095 18.1729 39.2048 19.1818 38.028C19.7425 37.3739 20.6922 36.1997 21.2922 35.4186L22.383 33.9985L22.774 33.0031C22.9891 32.4555 23.1974 31.9065 23.237 31.783C23.281 31.6457 23.2748 31.5753 23.4047 31.5833Z" fill="#1A1A1A"/>
</svg>
