<svg xmlns="http://www.w3.org/2000/svg" id="clipboard" enable-background="new 0 0 24 24" viewBox="0 0 24 24"><path d="M17,4h-0.1843C16.4016,2.8385,15.3019,2,14,2h-4C8.6981,2,7.5984,2.8385,7.1843,4H7C5.3457,4,4,5.3457,4,7v12c0,1.6543,1.3457,3,3,3h10c1.6543,0,3-1.3457,3-3V7C20,5.3457,18.6543,4,17,4z M18,19c0,0.5518-0.4482,1-1,1H7c-0.5518,0-1-0.4482-1-1V7c0-0.5518,0.4482-1,1-1h0.1843C7.5984,7.1615,8.6981,8,10,8h4c1.3019,0,2.4016-0.8385,2.8157-2H17c0.5518,0,1,0.4482,1,1V19z"/><path d="M12.5 12h3c.2761 0 .5-.2239.5-.5v-1c0-.2761-.2239-.5-.5-.5h-3c-.2761 0-.5.2239-.5.5v1C12 11.7761 12.2239 12 12.5 12zM12.5 15h3c.2761 0 .5-.2239.5-.5v-1c0-.2761-.2239-.5-.5-.5h-3c-.2761 0-.5.2239-.5.5v1C12 14.7761 12.2239 15 12.5 15zM12.5 18h3c.2761 0 .5-.2239.5-.5v-1c0-.2761-.2239-.5-.5-.5h-3c-.2761 0-.5.2239-.5.5v1C12 17.7761 12.2239 18 12.5 18zM8.5 12h1c.2761 0 .5-.2239.5-.5v-1c0-.2761-.2239-.5-.5-.5h-1C8.2239 10 8 10.2239 8 10.5v1C8 11.7761 8.2239 12 8.5 12zM8.5 15h1c.2761 0 .5-.2239.5-.5v-1c0-.2761-.2239-.5-.5-.5h-1C8.2239 13 8 13.2239 8 13.5v1C8 14.7761 8.2239 15 8.5 15zM8.5 18h1c.2761 0 .5-.2239.5-.5v-1c0-.2761-.2239-.5-.5-.5h-1C8.2239 16 8 16.2239 8 16.5v1C8 17.7761 8.2239 18 8.5 18z"/></svg>