<svg xmlns="http://www.w3.org/2000/svg" id="portfolio" enable-background="new 0 0 60 60" viewBox="0 0 60 60"><path d="M45.4702148,36.7360535c0,1.6542969-1.3457031,3-3,3h-4.4799805c-1.6542969,0-3-1.3457031-3-3v-4.4599609
		h-9.9804688v4.4599609c0,1.6542969-1.3457031,3-3,3h-4.4794922c-1.6542969,0-3-1.3457031-3-3v-4.4599609H9.6650391v15.7001953
		c0,2.2680664,1.8452148,4.1132813,4.1132813,4.1132813h32.4433594c2.2680664,0,4.1132813-1.8452148,4.1132813-4.1132813V32.2760925
		h-4.8647461V36.7360535z"/><path d="M43.4699707 32.280426v4.460022c0 .5599976-.4499512 1-1 1h-4.4799805c-.5499878 0-1-.4400024-1-1v-4.460022H43.4699707zM23.0100098 32.280426v4.460022c0 .5599976-.4500122 1-1 1h-4.4799805c-.5500488 0-1-.4400024-1-1v-4.460022H23.0100098zM48.8800049 14.7604675H38v-3.6800537c0-1.75-1.4199829-3.1699829-3.1699829-3.1699829h-9.6600342c-1.75 0-3.1699829 1.4199829-3.1699829 3.1699829v3.6800537H11.1199951C8.8499756 14.7604675 7 16.6104431 7 18.8704529V29.280426c0 .5599976.4500122 1 1 1h44c.5499878 0 1-.4400024 1-1V18.8704529C53 16.6104431 51.1500244 14.7604675 48.8800049 14.7604675zM36 14.7604675H24v-3.6800537c0-.6499634.5200195-1.1699829 1.1699829-1.1699829h9.6600342C35.4799805 9.9104309 36 10.4304504 36 11.0804138V14.7604675z"/></svg>